<svg width="69" height="48" viewBox="0 0 69 48" fill="none" xmlns="http://www.w3.org/2000/svg">
<g clip-path="url(#clip0)">
<path fill-rule="evenodd" clip-rule="evenodd" d="M16.6434 5.60757L16.3825 7.09925C16.6434 5.60757 16.6433 5.60754 16.6434 5.60757L16.65 5.60869L16.6655 5.61136L16.7227 5.62134C16.7723 5.63006 16.8448 5.64295 16.9388 5.66005C17.1269 5.69424 17.4013 5.7453 17.752 5.81368C18.4533 5.95042 19.4604 6.15653 20.6932 6.43568C23.1567 6.9935 26.5315 7.84526 30.1722 9.02122C30.978 9.28151 31.4173 10.1365 31.1533 10.931C30.8893 11.7254 30.022 12.1585 29.2162 11.8982C25.6867 10.7582 22.4056 9.9297 20.0058 9.38629C18.8457 9.12359 17.8939 8.92806 17.2225 8.79656L9.47101 23.6266C9.67508 23.833 9.91061 24.071 10.1661 24.3286C11.0077 25.1772 12.0622 26.2357 12.9234 27.0847C13.523 27.6759 13.523 28.6343 12.9234 29.2254C12.3238 29.8166 11.3517 29.8166 10.752 29.2254C9.87826 28.364 8.81397 27.2957 7.97045 26.4451C7.54818 26.0193 7.18029 25.6471 6.91792 25.3814L6.49862 24.9561C6.03958 24.4897 5.93328 23.7859 6.23525 23.2081L15.0176 6.40586C15.3247 5.81839 15.9829 5.49522 16.6434 5.60757Z" fill="#4A4A4A"/>
<path fill-rule="evenodd" clip-rule="evenodd" d="M48.6062 22.7683C48.9528 22.0054 49.8612 21.6639 50.6351 22.0057L54.0282 23.5043C54.075 23.5249 54.1206 23.5478 54.165 23.5729C55.2615 24.1935 56.1144 25.1174 56.4768 26.2832C56.8441 27.4646 56.6495 28.7107 55.9896 29.835C54.6099 32.2011 51.5811 32.9822 49.1969 31.6327L45.8031 29.71C45.0679 29.2935 44.8144 28.3682 45.2369 27.6433C45.6594 26.9185 46.5979 26.6686 47.3331 27.0851L50.7257 29.0072C51.6569 29.5338 52.8032 29.2263 53.328 28.3251L53.3311 28.3198C53.6219 27.8251 53.6263 27.445 53.5409 27.1704C53.4536 26.8897 53.2159 26.5426 52.6959 26.2332L49.3797 24.7686C48.6058 24.4268 48.2595 23.5313 48.6062 22.7683Z" fill="#4A4A4A"/>
<path fill-rule="evenodd" clip-rule="evenodd" d="M44.9758 27.4766C45.3983 26.7517 46.3368 26.5018 47.072 26.9183L50.4647 28.8404C50.4648 28.8405 50.4645 28.8403 50.4647 28.8404C52.8663 30.2001 53.6599 33.1875 52.2908 35.5388C50.9118 37.907 47.8817 38.6891 45.4966 37.3392L42.1028 35.4164C41.3676 34.9999 41.1141 34.0746 41.5366 33.3498C41.9591 32.6249 42.8976 32.375 43.6328 32.7916L47.0254 34.7136C47.9567 35.2407 49.1028 34.933 49.6277 34.0315C50.1623 33.1134 49.8502 31.9835 48.9358 31.466L45.542 29.5432C44.8068 29.1267 44.5533 28.2014 44.9758 27.4766Z" fill="#4A4A4A"/>
<path fill-rule="evenodd" clip-rule="evenodd" d="M40.2008 32.7144C40.6233 31.9895 41.5618 31.7396 42.297 32.1561L45.6896 34.0782C48.0912 35.4379 48.8849 38.4253 47.5158 40.7766C46.1368 43.1448 43.1067 43.9269 40.7215 42.577L37.3278 40.6542C36.5925 40.2377 36.339 39.3124 36.7615 38.5876C37.184 37.8627 38.1226 37.6128 38.8578 38.0293L42.2504 39.9514C43.1817 40.4785 44.3278 40.1708 44.8527 39.2693C45.3873 38.3512 45.0751 37.2213 44.1608 36.7038L40.767 34.781C40.0318 34.3645 39.7783 33.4392 40.2008 32.7144Z" fill="#4A4A4A"/>
<path fill-rule="evenodd" clip-rule="evenodd" d="M34.9344 37.4673C35.3569 36.7424 36.2955 36.4925 37.0307 36.909L40.4233 38.8311C40.4235 38.8313 40.4231 38.831 40.4233 38.8311C42.8249 40.1908 43.6186 43.1782 42.2494 45.5295C40.8705 47.8977 37.8403 48.6798 35.4552 47.3299L32.0614 45.4072C31.3262 44.9906 31.0727 44.0654 31.4952 43.3405C31.9177 42.6157 32.8562 42.3657 33.5914 42.7823L36.984 44.7044C37.9153 45.2315 39.0614 44.9237 39.5863 44.0223C40.1209 43.1041 39.8088 41.9742 38.8944 41.4567L35.5007 39.5339C34.7654 39.1174 34.5119 38.1921 34.9344 37.4673Z" fill="#4A4A4A"/>
<path fill-rule="evenodd" clip-rule="evenodd" d="M15.1984 27.1309L11.9551 30.0418C11.358 30.5892 11.3278 31.5163 11.8682 32.0851C12.4445 32.6916 13.399 32.7137 13.974 32.1898L13.9824 32.1822L17.228 29.2692C17.8358 28.7014 17.8552 27.7708 17.3194 27.2068C17.3097 27.1966 17.3002 27.1863 17.2908 27.1758C16.8125 26.6437 15.8744 26.5413 15.1984 27.1309ZM19.5749 25.1524C17.9027 23.3094 15.0169 23.2344 13.1498 24.8756L9.88296 27.8076L9.87455 27.8152C8.0491 29.4782 7.89617 32.3329 9.62711 34.1547C11.3218 35.9384 14.2024 36.0992 16.0534 34.4175L19.3046 31.4994L19.3207 31.4848C21.1273 29.8164 21.2941 26.9786 19.5749 25.1524Z" fill="#4A4A4A"/>
<path fill-rule="evenodd" clip-rule="evenodd" d="M49.7836 6.91513C49.7839 6.91523 49.7842 6.91532 49.3624 8.3708L49.7836 6.91513C50.0264 6.98353 50.2491 7.11014 50.4305 7.28336L63.036 19.3174C63.3442 19.6116 63.5135 20.0196 63.5028 20.4424C63.4922 20.8653 63.3026 21.2644 62.9799 21.5432L61.9679 20.4049C62.9799 21.5432 62.9801 21.5431 62.9799 21.5432L62.9781 21.5448L62.9611 21.5594L62.9129 21.6006C62.8713 21.6361 62.8112 21.6871 62.7343 21.7516C62.5808 21.8805 62.3603 22.0635 62.0888 22.2832C61.5471 22.7214 60.7959 23.3107 59.9634 23.9096C59.1356 24.5051 58.2019 25.1285 57.2987 25.6234C56.446 26.0906 55.4306 26.5521 54.4897 26.6353C54.251 26.6564 54.0106 26.6222 53.7877 26.5353L54.3524 25.1277C53.7877 26.5353 53.7878 26.5353 53.7877 26.5353L53.7698 26.5283L53.7209 26.5091L53.5364 26.4362C53.3768 26.3728 53.1464 26.2807 52.861 26.1651C52.2906 25.9339 51.4989 25.6075 50.6126 25.2268C48.8589 24.4733 46.6678 23.4781 45.1014 22.574L45.0968 22.5713C42.7677 21.2163 40.2189 19.028 38.3027 17.2418C37.3325 16.3374 36.5016 15.5143 35.9128 14.917C35.8987 14.9027 35.8848 14.8886 35.871 14.8746C33.4437 16.589 30.701 18.1443 28.9952 19.1016C27.5149 19.9324 25.5056 19.9182 24.0776 18.7397C22.0274 17.0814 21.946 14.0314 23.9059 12.2877C23.9738 12.2273 24.0471 12.1729 24.1248 12.1254L33.02 6.68214C33.2586 6.53117 33.674 6.27894 34.2284 6.17506C37.9586 5.37936 41.8538 5.57707 44.7652 5.95215C46.2349 6.14148 47.4786 6.37937 48.3582 6.57074C48.7985 6.66652 49.1488 6.75092 49.3919 6.8122C49.5135 6.84285 49.6084 6.86773 49.6745 6.8854L49.7518 6.90631L49.7737 6.91237L49.7804 6.91425L49.7836 6.91513ZM37.4695 12.1431C37.6214 12.3018 37.8405 12.5286 38.115 12.8071C38.6811 13.3815 39.4806 14.1734 40.4124 15.0419C42.2993 16.8009 44.6397 18.7897 46.6552 19.9627C48.052 20.7687 50.0973 21.7029 51.8394 22.4514C52.7016 22.8218 53.473 23.1398 54.0287 23.3651C54.2142 23.4403 54.3755 23.505 54.5078 23.5579C54.804 23.4705 55.2387 23.2885 55.807 22.9772C56.5562 22.5667 57.3767 22.0227 58.1534 21.464C58.71 21.0636 59.2311 20.665 59.6704 20.3186L48.5821 9.73296C48.3705 9.68014 48.0709 9.6085 47.6965 9.52705C46.8867 9.35087 45.7324 9.12991 44.3674 8.95406C41.6157 8.59958 38.1056 8.44162 34.8571 9.13846C34.8462 9.14081 34.8352 9.14304 34.8242 9.14515C34.8005 9.1564 34.7584 9.17937 34.67 9.2354L34.6494 9.24821L25.8845 14.6118C25.4102 15.1158 25.446 15.9331 26.0281 16.4014L26.0464 16.4163C26.3681 16.6835 26.9635 16.7582 27.4761 16.4706C29.4809 15.3455 32.6891 13.5181 35.1536 11.6267C35.6164 11.2715 36.2441 11.2072 36.771 11.4612C37.0792 11.6097 37.3215 11.8519 37.4695 12.1431Z" fill="#4A4A4A"/>
<path fill-rule="evenodd" clip-rule="evenodd" d="M26.1872 35.5708C25.6214 34.9677 24.6937 34.943 24.111 35.4812L24.095 35.4958L20.8449 38.4128C20.2478 38.9602 20.2176 39.8873 20.758 40.4561L20.7651 40.4636L20.7651 40.4636C21.3199 41.0556 22.2628 41.0864 22.8408 40.5527L22.8568 40.5381L26.1069 37.621C26.704 37.0736 26.7342 36.1465 26.1938 35.5778L26.1872 35.5708L26.1872 35.5708ZM28.4382 33.5116C26.734 31.6989 23.8628 31.571 22.0205 33.2636L18.7727 36.1785L18.7727 36.1785L18.7643 36.1861C16.9401 37.848 16.7862 40.7 18.5133 42.522C20.198 44.3153 23.0843 44.467 24.9313 42.7702L28.1791 39.8553L28.1791 39.8553L28.1875 39.8477C30.0118 38.1857 30.1657 35.3335 28.4382 33.5116Z" fill="#4A4A4A"/>
<path fill-rule="evenodd" clip-rule="evenodd" d="M30.585 39.6799C30.0093 39.0739 29.0759 39.0535 28.5022 39.5833L28.4894 39.5952L28.4893 39.5952L26.4964 41.3936C25.8981 41.9409 25.8675 42.8689 26.4083 43.4381L26.4154 43.4456L26.4154 43.4456C26.9702 44.0376 27.9131 44.0685 28.4911 43.5347L28.5039 43.5228L28.504 43.5229L30.4969 41.7244C31.0952 41.1771 31.1258 40.2491 30.585 39.6799ZM26.41 37.3673C28.2625 35.6637 31.1317 35.8269 32.8262 37.6103C34.5571 39.4321 34.4042 42.2868 32.5787 43.9498L32.5734 43.9547L32.5734 43.9547L30.5833 45.7507C28.7363 47.4491 25.8488 47.2978 24.1636 45.504C22.4364 43.682 22.5904 40.83 24.4146 39.1682L24.4199 39.1634L24.4199 39.1634L26.41 37.3673Z" fill="#4A4A4A"/>
<path fill-rule="evenodd" clip-rule="evenodd" d="M22.9196 30.3197C22.3584 29.7067 21.4785 29.6609 20.8493 30.251L20.8304 30.2684L16.0581 34.5952C16.0577 34.5956 16.0573 34.5959 16.057 34.5962C15.4576 35.1434 15.4266 36.0721 15.9677 36.6416L15.9748 36.6491L15.9748 36.6492C16.5297 37.2411 17.4725 37.272 18.0505 36.7382L18.0607 36.7289L18.0607 36.7289L22.8485 32.3869C22.8489 32.3865 22.8492 32.3862 22.8496 32.3859C23.449 31.8388 23.48 30.91 22.9389 30.3404L22.9196 30.3197ZM25.1898 28.2811C23.4806 26.4249 20.6286 26.2899 18.7432 28.0479L13.9767 32.3693L13.9767 32.3693L13.974 32.3717C12.1498 34.0336 11.9959 36.8856 13.723 38.7075C15.4087 40.5019 18.2973 40.6528 20.1442 38.9529L24.93 34.6127L24.9326 34.6104C26.7546 32.9505 26.9104 30.1034 25.1898 28.2811Z" fill="#4A4A4A"/>
<path d="M12.8818 2.36133L1.02869 24.7795L7.58476 28.1399L19.4225 5.70665L12.8818 2.36133Z" fill="#FFCE1B"/>
<path fill-rule="evenodd" clip-rule="evenodd" d="M12.5552 1.3418L20.4583 5.3839L7.91157 29.1607L-0.00732422 25.1017L12.5552 1.3418ZM13.2084 3.38117L2.06466 24.4576L7.25791 27.1195L18.3868 6.0297L13.2084 3.38117Z" fill="#FFCE1B"/>
<path d="M49.7771 1.07471L44.5568 6.22135L62.6896 24.0984L67.9099 18.9517L49.7771 1.07471Z" fill="#FFCE1B"/>
<path fill-rule="evenodd" clip-rule="evenodd" d="M49.777 0.00439453L68.9956 18.9518L62.6896 25.1688L43.4711 6.2214L49.777 0.00439453ZM49.777 2.14512L45.6424 6.2214L62.6896 23.028L66.8242 18.9518L49.777 2.14512Z" fill="#FFCE1B"/>
</g>
<defs>
<clipPath id="clip0">
<rect width="69" height="48" fill="white"/>
</clipPath>
</defs>
</svg>
