<?xml version="1.0" standalone="no"?>
<!DOCTYPE svg PUBLIC "-//W3C//DTD SVG 1.0//EN" "http://www.w3.org/TR/2001/REC-SVG-20010904/DTD/svg10.dtd">
<svg xmlns="http://www.w3.org/2000/svg" xmlns:xlink="http://www.w3.org/1999/xlink" id="body_1" width="62" height="67">

<g transform="matrix(1 0 0 1 0 0)">
	<g>
        <path d="M50.2869 66.4999L44.7139 66.4999L25.8563 66.2902C 25.6295 66.2902 25.4027 66.2418 25.2083 66.145L25.2083 66.145L9.47741 58.9658C 8.91039 58.7077 8.53778 58.143 8.53778 57.5139L8.53778 57.5139L8.27856 25.8449C 8.27856 25.1028 8.76458 24.4575 9.47741 24.28C 15.1639 22.7635 24.7709 19.3272 27.3792 16.3104L27.3792 16.3104L27.3792 7.7922C 27.3306 5.59812 28.173 3.38791 29.6473 1.88755C 30.8785 0.66145 32.3852 0 34.0538 0C 38.1202 0 40.6313 3.95256 40.7123 7.75993C 40.7609 10.196 40.8095 18.1495 40.8419 21.6181L40.8419 21.6181L53.0734 21.489L54.4343 21.5697L54.4505 21.5697C 57.1398 21.5697 60.3475 22.3118 60.542 28.0874C 60.6068 30.1202 59.8129 31.3947 59.1001 32.0884C 59.4241 32.3142 59.7319 32.5885 60.0235 32.895C 61.3844 34.3147 62.0486 36.2023 62 38.5254C 61.9514 40.7356 61.19 42.478 59.7481 43.6879C 59.4565 43.9299 59.1649 44.1397 58.8571 44.3171C 58.9543 44.4139 59.0353 44.5107 59.1325 44.6075C 60.4123 46.0272 60.9794 47.8664 60.8174 50.1088C 60.623 52.674 59.3917 54.0937 58.3873 54.8358C 57.8202 55.2552 57.2046 55.5456 56.5728 55.7554C 57.3342 56.804 57.7716 58.0946 57.7068 59.6273C 57.4962 63.7412 53.7053 66.4999 50.2869 66.4999zM26.2451 63.0636L50.2869 63.2733C 52.1662 63.2733 54.3371 61.7245 54.4505 59.4821C 54.5639 56.9976 52.0042 56.1909 51.1456 55.9974C 51.0322 55.9812 50.9674 55.9651 50.9188 55.949C 50.0601 55.7554 49.5093 54.9003 49.7037 54.0453C 49.8819 53.1902 50.7243 52.6417 51.5992 52.7869C 51.6802 52.803 51.7612 52.8192 51.826 52.8353C 52.8142 53.0128 55.1309 53.1902 56.4594 52.2223C 57.1236 51.7221 57.4962 50.9478 57.5772 49.8668C 57.6744 48.5278 57.399 47.5276 56.7348 46.7855C 55.8438 45.8014 54.4505 45.4787 53.7701 45.398C 53.4785 45.3819 53.2679 45.3496 53.1869 45.3496C 52.3444 45.2206 51.7288 44.4623 51.8098 43.6234C 51.8908 42.7845 52.5874 42.123 53.4623 42.1392C 53.4947 42.1392 53.7215 42.1392 54.0455 42.1876C 54.9365 42.2037 56.6376 42.1069 57.6582 41.2357C 58.3711 40.6388 58.7275 39.7354 58.7599 38.4609C 58.8571 34.1857 55.3091 33.8146 54.5315 33.7985C 54.5153 33.7985 54.4829 33.7985 54.4829 33.7985C 53.5919 33.7662 52.9114 33.0241 52.9276 32.1368C 52.9438 31.2495 53.6405 30.5719 54.5801 30.5719C 54.5963 30.5719 54.6287 30.5719 54.6773 30.5719C 55.0985 30.5719 56.2002 30.4428 56.7996 29.8459C 57.156 29.4748 57.3342 28.9425 57.3018 28.2003C 57.1884 24.7963 56.1192 24.7963 54.3371 24.7963L54.3371 24.7963L52.9924 24.7156L39.2381 24.8608C 38.833 24.8447 38.3956 24.6995 38.0878 24.393C 37.78 24.0864 37.6018 23.6831 37.6018 23.2475C 37.6018 23.1185 37.537 10.8575 37.4722 7.80833C 37.4236 5.56586 36.1275 3.22658 34.0538 3.22658C 33.2762 3.22658 32.5796 3.53311 31.9802 4.14616C 31.1215 5.01734 30.6031 6.40477 30.6355 7.75993L30.6355 7.75993L30.6355 16.8589C 30.6355 17.1816 30.5383 17.5042 30.3601 17.7623C 27.3144 22.215 15.5689 25.8933 11.5511 27.0549L11.5511 27.0549L11.7941 56.4491L26.2451 63.0636z" stroke="none" fill="#4A4A4A" fill-rule="nonzero" />
        <path d="M1.62012 20.0371L1.62012 65.3867L11.5187 65.3867L11.5187 20.0371L1.62012 20.0371z" stroke="none" fill="#FFCE1B" fill-rule="nonzero" />
        <path d="M13.1388 67L0 67L0 18.4238L13.1388 18.4238L13.1388 67zM3.24014 63.7735L9.89862 63.7735L9.89862 21.6504L3.24014 21.6504L3.24014 63.7735z" stroke="none" fill="#FFCE1B" fill-rule="nonzero" />
	</g>
</g>
</svg>