<svg width="68" height="63" viewBox="0 0 68 63" fill="none" xmlns="http://www.w3.org/2000/svg">
<path fill-rule="evenodd" clip-rule="evenodd" d="M34 3.43511C24.7426 3.43511 17.238 11.0172 17.238 20.3702C17.238 29.7232 24.7426 37.3053 34 37.3053C43.2574 37.3053 50.762 29.7232 50.762 20.3702C50.762 11.0172 43.2574 3.43511 34 3.43511ZM13.838 20.3702C13.838 9.12006 22.8648 0 34 0C45.1352 0 54.162 9.12006 54.162 20.3702C54.162 31.6204 45.1352 40.7405 34 40.7405C22.8648 40.7405 13.838 31.6204 13.838 20.3702Z" fill="#4A4A4A"/>
<path d="M1.69995 61.2823C1.69995 51.9045 5.84795 43.5056 12.342 37.9751C12.342 37.9751 20.162 47.5075 34 47.5075C47.838 47.5075 55.658 37.9751 55.658 37.9751C62.152 43.5056 66.3 51.8873 66.3 61.2823H1.69995Z" fill="#FFCE1B"/>
<path fill-rule="evenodd" clip-rule="evenodd" d="M12.2475 40.3623C7.19262 45.1953 3.88589 51.9835 3.44932 59.5646H64.5508C64.115 51.9716 60.8084 45.1943 55.7526 40.3622C55.6362 40.4761 55.5116 40.5959 55.3788 40.7209C54.3679 41.6725 52.8776 42.9311 50.9348 44.1876C47.0484 46.7012 41.3199 49.2249 34 49.2249C26.6801 49.2249 20.9516 46.7012 17.0652 44.1876C15.1224 42.9311 13.6321 41.6725 12.6212 40.7209C12.4885 40.596 12.3639 40.4762 12.2475 40.3623ZM54.3506 36.877L55.443 35.5454L56.7537 36.6616C63.6205 42.5096 68 51.3671 68 61.2821V62.9997H0V61.2821C0 51.3848 4.37915 42.51 11.2463 36.6616L12.557 35.5454L13.6486 36.8761C13.6483 36.8757 13.6479 36.8753 13.6486 36.8761L13.6586 36.8879C13.6686 36.8998 13.686 36.9203 13.7109 36.9489C13.7605 37.0061 13.8396 37.0954 13.9477 37.2124C14.1639 37.4464 14.4956 37.7903 14.939 38.2077C15.8268 39.0434 17.1564 40.1679 18.8983 41.2945C22.3814 43.5472 27.4819 45.7897 34 45.7897C40.5181 45.7897 45.6186 43.5472 49.1017 41.2945C50.8437 40.1679 52.1732 39.0434 53.061 38.2077C53.5044 37.7903 53.8361 37.4464 54.0523 37.2124C54.1604 37.0954 54.2395 37.0061 54.2891 36.9489C54.314 36.9203 54.3314 36.8998 54.3414 36.8879L54.3491 36.8788L54.3506 36.877Z" fill="#FFCE1B"/>
<path d="M57.8 50.3931H44.2V55.5457H57.8V50.3931Z" fill="#4A4A4A"/>
<path fill-rule="evenodd" clip-rule="evenodd" d="M42.5 50.3928C42.5 49.4443 43.2611 48.6753 44.2 48.6753H57.8C58.7389 48.6753 59.5 49.4443 59.5 50.3928V55.5455C59.5 56.4941 58.7389 57.2631 57.8 57.2631H44.2C43.2611 57.2631 42.5 56.4941 42.5 55.5455V50.3928ZM45.9 52.1104V53.828H56.1V52.1104H45.9Z" fill="#4A4A4A"/>
</svg>
