<svg width="81" height="37" viewBox="0 0 81 37" fill="none" xmlns="http://www.w3.org/2000/svg">
<g clip-path="url(#clip0)">
<path d="M27.2123 12.8477C27.2123 12.8477 31.0543 8.85522 42.9584 8.38086C52.9515 8.85522 56.4551 12.8477 56.4551 12.8477H27.2123Z" fill="#FFCE1B"/>
<path d="M56.475 13.836H27.2123C26.8142 13.836 26.4559 13.5988 26.2966 13.243C26.1374 12.8872 26.217 12.4524 26.4957 12.1757C26.6549 11.9978 30.7557 7.8867 42.9186 7.39258C53.3099 7.8867 57.0523 12.0176 57.2116 12.1955C57.4704 12.4919 57.5301 12.907 57.3708 13.2628C57.2116 13.6185 56.8533 13.836 56.475 13.836ZM30.6761 11.8595H53.3696C51.3989 10.8119 48.0545 9.60625 42.9186 9.36907C36.8471 9.60625 32.9653 10.8119 30.6761 11.8595Z" fill="#FFCE1B"/>
<path d="M11.4663 33.5217C11.4066 33.5217 11.3468 33.5217 11.2871 33.5217C4.97672 32.9683 0.119503 27.9283 6.37025e-05 21.7813C-0.0994693 16.7215 2.92633 12.2546 7.68401 10.377L30.6961 1.99663C39.4948 -1.2053 49.6073 -0.533288 57.9084 3.83477C59.3815 4.6056 62.6263 5.57408 65.7516 6.50304C67.4238 6.99716 69.076 7.49128 70.5093 7.96564C77.178 10.1793 81.0001 14.8241 81.0001 20.714C81.0001 24.4101 79.3876 29.2723 74.8688 31.8417C73.9133 32.3951 72.699 32.0591 72.1416 31.1104C71.5842 30.1617 71.9226 28.956 72.8782 28.4026C75.9438 26.6633 77.0187 23.2835 77.0187 20.6943C77.0187 16.5436 74.2517 13.3615 69.2552 11.7012C67.8617 11.2466 66.2493 10.7525 64.6169 10.2781C61.1532 9.25037 57.8885 8.28188 56.0571 7.3134C48.7314 3.45923 39.8332 2.86628 32.0895 5.69267L9.11729 14.073C5.95214 15.3182 3.92167 18.3225 3.98139 21.7221C4.06101 25.7541 7.42523 29.213 11.6454 29.5885C12.7403 29.6873 13.5565 30.636 13.4569 31.7231C13.3574 32.7509 12.5014 33.5217 11.4663 33.5217Z" fill="#4A4A4A"/>
<path d="M50.085 33.5609H36.0309C34.9361 33.5609 34.0403 32.6715 34.0403 31.5844C34.0403 30.4973 34.9361 29.6079 36.0309 29.6079H50.085C51.1799 29.6079 52.0757 30.4973 52.0757 31.5844C52.0757 32.6715 51.1799 33.5609 50.085 33.5609Z" fill="#4A4A4A"/>
<path d="M23.1116 37.0004C27.5092 37.0004 31.0742 33.4608 31.0742 29.0945C31.0742 24.7281 27.5092 21.1885 23.1116 21.1885C18.7139 21.1885 15.1489 24.7281 15.1489 29.0945C15.1489 33.4608 18.7139 37.0004 23.1116 37.0004Z" fill="#FFCE1B"/>
<path d="M62.0488 37.0004C66.4465 37.0004 70.0115 33.4608 70.0115 29.0945C70.0115 24.7281 66.4465 21.1885 62.0488 21.1885C57.6512 21.1885 54.0862 24.7281 54.0862 29.0945C54.0862 33.4608 57.6512 37.0004 62.0488 37.0004Z" fill="#FFCE1B"/>
</g>
<defs>
<clipPath id="clip0">
<rect width="81" height="37" fill="white"/>
</clipPath>
</defs>
</svg>
