<svg width="69" height="69" viewBox="0 0 69 69" fill="none" xmlns="http://www.w3.org/2000/svg">
<path fill-rule="evenodd" clip-rule="evenodd" d="M34.5 3.06667C17.1399 3.06667 3.06667 17.1399 3.06667 34.5C3.06667 51.8601 17.1399 65.9333 34.5 65.9333C51.8601 65.9333 65.9333 51.8601 65.9333 34.5C65.9333 17.1399 51.8601 3.06667 34.5 3.06667ZM0 34.5C0 15.4462 15.4462 0 34.5 0C53.5538 0 69 15.4462 69 34.5C69 53.5538 53.5538 69 34.5 69C15.4462 69 0 53.5538 0 34.5Z" fill="#FFCE1B"/>
<path fill-rule="evenodd" clip-rule="evenodd" d="M34.5 16.4834C35.3468 16.4834 36.0333 17.1699 36.0333 18.0167V35.9332L45.0153 45.1931C45.6049 45.801 45.5901 46.7717 44.9823 47.3614C44.3744 47.951 43.4037 47.9362 42.8141 47.3283L33.3994 37.6223C33.1219 37.3362 32.9667 36.9533 32.9667 36.5547V18.0167C32.9667 17.1699 33.6532 16.4834 34.5 16.4834Z" fill="#4A4A4A"/>
</svg>
