<svg width="52" height="69" viewBox="0 0 52 69" fill="none" xmlns="http://www.w3.org/2000/svg">
<g clip-path="url(#clip0)">
<path fill-rule="evenodd" clip-rule="evenodd" d="M0 1.64286C0 0.735532 0.727537 0 1.625 0H35.75C36.6475 0 37.375 0.735532 37.375 1.64286V14.7857H50.375C51.2725 14.7857 52 15.5212 52 16.4286V67.3571C52 68.2645 51.2725 69 50.375 69H1.625C0.727537 69 0 68.2645 0 67.3571V1.64286ZM3.25 3.28571V65.7143H48.75V18.0714H35.75C34.8525 18.0714 34.125 17.3359 34.125 16.4286V3.28571H3.25Z" fill="#4A4A4A"/>
<path d="M35.75 16.4288H50.375L35.75 1.64307V16.4288Z" fill="#4A4A4A"/>
<path fill-rule="evenodd" clip-rule="evenodd" d="M35.1281 0.125103C35.7354 -0.12918 36.4343 0.0113759 36.899 0.48123L51.524 15.2669C51.9888 15.7368 52.1278 16.4434 51.8763 17.0573C51.6248 17.6712 51.0323 18.0715 50.375 18.0715H35.75C34.8525 18.0715 34.125 17.3359 34.125 16.4286V1.6429C34.125 0.978431 34.5209 0.379386 35.1281 0.125103ZM37.375 5.60911V14.7858H46.4519L37.375 5.60911Z" fill="#4A4A4A"/>
<path fill-rule="evenodd" clip-rule="evenodd" d="M18.492 18.5735C19.1151 19.2265 19.0966 20.2666 18.4507 20.8965L12.9257 26.2851C12.2957 26.8996 11.2973 26.899 10.668 26.2838L8.21421 23.8852C7.56901 23.2545 7.55169 22.2145 8.17552 21.5622C8.79935 20.9099 9.8281 20.8924 10.4733 21.5231L11.7988 22.8188L16.1943 18.5318C16.8402 17.9018 17.8689 17.9205 18.492 18.5735Z" fill="#FFCE1B"/>
<path fill-rule="evenodd" clip-rule="evenodd" d="M16.3974 34.2975C17.0195 34.9515 16.9995 35.9915 16.3526 36.6204L10.8276 41.9926C10.1808 42.6215 9.15207 42.6012 8.52995 41.9473C7.90784 41.2933 7.92789 40.2533 8.57473 39.6244L14.0997 34.2522C14.7466 33.6233 15.7753 33.6435 16.3974 34.2975Z" fill="#FFCE1B"/>
<path fill-rule="evenodd" clip-rule="evenodd" d="M8.52995 34.2975C9.15207 33.6435 10.1808 33.6233 10.8276 34.2522L16.3526 39.6244C16.9995 40.2533 17.0195 41.2933 16.3974 41.9473C15.7753 42.6012 14.7466 42.6215 14.0997 41.9926L8.57473 36.6204C7.92789 35.9915 7.90784 34.9515 8.52995 34.2975Z" fill="#FFCE1B"/>
<path fill-rule="evenodd" clip-rule="evenodd" d="M22.1488 23.3616C22.1488 22.4543 22.8763 21.7188 23.7738 21.7188H41.0313C41.9288 21.7188 42.6563 22.4543 42.6563 23.3616C42.6563 24.2689 41.9288 25.0045 41.0313 25.0045H23.7738C22.8763 25.0045 22.1488 24.2689 22.1488 23.3616Z" fill="#4A4A4A"/>
<path fill-rule="evenodd" clip-rule="evenodd" d="M18.492 48.3587C19.1151 49.0117 19.0966 50.0517 18.4507 50.6817L12.9257 56.0702C12.2957 56.6847 11.2973 56.6842 10.668 56.0689L8.21421 53.6704C7.56901 53.0397 7.55169 51.9996 8.17552 51.3474C8.79935 50.6951 9.8281 50.6776 10.4733 51.3082L11.7988 52.6039L16.1943 48.317C16.8402 47.687 17.8689 47.7057 18.492 48.3587Z" fill="#FFCE1B"/>
<path fill-rule="evenodd" clip-rule="evenodd" d="M22.1488 53.1629C22.1488 52.2556 22.8763 51.52 23.7738 51.52H41.0313C41.9288 51.52 42.6563 52.2556 42.6563 53.1629C42.6563 54.0702 41.9288 54.8057 41.0313 54.8057H23.7738C22.8763 54.8057 22.1488 54.0702 22.1488 53.1629Z" fill="#4A4A4A"/>
<path fill-rule="evenodd" clip-rule="evenodd" d="M22.1488 37.802C22.1488 36.8947 22.8763 36.1592 23.7738 36.1592H41.0313C41.9288 36.1592 42.6563 36.8947 42.6563 37.802C42.6563 38.7094 41.9288 39.4449 41.0313 39.4449H23.7738C22.8763 39.4449 22.1488 38.7094 22.1488 37.802Z" fill="#4A4A4A"/>
</g>
<defs>
<clipPath id="clip0">
<rect width="52" height="69" fill="white"/>
</clipPath>
</defs>
</svg>
