<svg width="442" height="168" viewBox="0 0 442 168" fill="none" xmlns="http://www.w3.org/2000/svg">
<g clip-path="url(#clip0)">
<path d="M271.2 35.5L192.5 6.6C180.5 2.2 168 0 155.3 0C137.7 0 120.2 4.4 104.7 12.6C96.2 17.1 86.2 17.8 77.1 14.4L69 11.4L95.6 34.6L110.5 26.7C121.2 21 132.8 17.1 144.8 15.8C159.3 14.2 173.6 15.9 187.2 20.9L265.8 49.7C273.6 52.8 278.5 60.5 278 69C277.3 79.3 268.3 87 258 87H250.5C247.5 90.4 245.3 92.8 240.8 94C245.9 89.8 249.1 83.4 249.1 76.3C249.1 63.6 238.8 53.4 226.2 53.4C213.5 53.4 203.3 63.7 203.3 76.3C203.3 80.2 204.3 83.8 206 87H96.6V102.3H257.5C276.5 102.3 292.8 87.4 293.2 68.4C293.5 53.8 284.9 40.9 271.2 35.5Z" fill="white"/>
<path d="M205.6 34.3996L180.9 26.1996C172.8 23.4996 164.2 22.0996 155.5 22.0996C143.5 22.0996 131.6 24.7996 120.9 29.8996C129.3 35.0996 139 37.8996 148.9 37.8996H205C207.1 37.8996 207.5 35.0996 205.6 34.3996Z" fill="white"/>
<path d="M22.4001 87L4.1001 102.3H99.4001V87H22.4001Z" fill="white"/>
<path d="M62.5001 24.7002C46.9001 38.5002 37.1001 58.6002 37.1001 81.0002H58.6001C58.6001 65.9002 64.9001 52.2002 75.0001 42.5002L62.5001 24.7002Z" fill="#F9B000"/>
<path d="M91.4002 76.0996L74.5002 52.0996C73.5002 53.2996 63.5002 64.8996 65.0002 80.8996H94.5002H96.8002C94.7002 79.7996 92.9002 78.0996 91.4002 76.0996Z" fill="#F9B000"/>
<path d="M111.2 59.7003L49.1 2.00027C48.2 1.10027 46.8 2.30027 47.5 3.40027L96.3 72.7003C99.7 77.5003 106.4 78.3003 110.9 74.5003C115.4 70.7003 115.5 63.8003 111.2 59.7003ZM104.6 70.8003C102.6 70.8003 101 69.2003 101 67.2003C101 65.2003 102.6 63.6003 104.6 63.6003C106.6 63.6003 108.2 65.2003 108.2 67.2003C108.2 69.2003 106.5 70.8003 104.6 70.8003Z" fill="#F9B000"/>
<path d="M91.4002 76.0996L74.5002 52.0996C73.5002 53.2996 63.5002 64.8996 65.0002 80.8996H94.5002H96.8002C94.7002 79.7996 92.9002 78.0996 91.4002 76.0996Z" fill="url(#paint0_linear)"/>
<path d="M73.3998 40.1002L62.4998 24.7002C59.9998 26.9002 57.6998 29.3002 55.4998 31.8002C58.9998 37.8002 58.9998 45.1002 55.6998 51.2002C50.7998 60.2002 47.6998 70.2002 46.7998 80.9002H58.4998C58.4998 65.8002 64.7998 52.1002 74.8998 42.4002L73.3998 40.1002Z" fill="url(#paint1_linear)"/>
<path opacity="0.13" d="M205.6 34.4L180.9 26.2C172.8 23.5 164.2 22.1 155.5 22.1C143.5 22.1 131.6 24.8 120.9 29.9C129.3 35.1 139 37.9 148.9 37.9H205C207.1 37.9 207.5 35.1 205.6 34.4ZM48.6999 1.8C48.5999 1.8 48.5999 1.8 48.4999 1.8C48.3999 1.8 48.3999 1.8 48.2999 1.8C48.1999 1.8 48.0999 1.8 47.9999 1.9C47.3999 2.1 46.9999 2.9 47.4999 3.5L62.4999 24.8C61.8999 25.3 61.2999 25.9 60.6999 26.5L60.5999 26.6C57.7999 29.3 55.1999 32.2 52.7999 35.2C59.6999 38.1 66.7999 40.9 74.0999 43.4C74.3999 43.1 74.6999 42.8 74.9999 42.5L76.1999 44.2C84.8999 47.2 93.9999 50 103.2 52.4L49.0999 2C48.9999 1.9 48.8999 1.8 48.6999 1.8ZM226.1 53.4C217.4 53.4 209.8 58.3 205.9 65.4C219.3 65.2 232.2 64.2 244.4 62.5C240.2 57 233.5 53.4 226.1 53.4ZM271.2 35.5L192.5 6.6C180.5 2.2 168 0 155.3 0C137.7 0 120.2 4.4 104.7 12.6C96.1999 17.1 86.1999 17.8 77.0999 14.4L68.9999 11.4L95.5999 34.6L110.5 26.7C121.2 21 132.8 17.1 144.8 15.8C159.3 14.2 173.6 15.9 187.2 20.9L265.8 49.7C269.3 51.1 272.3 53.5 274.4 56.4C279.6 55 284.6 53.4 289.4 51.7C285.6 44.5 279.3 38.7 271.2 35.5Z" fill="url(#paint2_linear)"/>
<path d="M432 57.5996H370.6C365.6 57.5996 361.5 61.6996 361.5 66.6996V94.9996C362.2 94.8996 362.8 94.7996 363.5 94.7996C369.1 94.7996 373.7 99.3996 373.7 105C373.7 105.5 373.7 106 373.6 106.4H432C437 106.4 441.1 102.3 441.1 97.2996V66.6996C441.1 61.6996 437 57.5996 432 57.5996Z" fill="#F9B000"/>
<path d="M432 57.5996H370.6C365.6 57.5996 361.5 61.6996 361.5 66.6996V94.9996C362.2 94.8996 362.8 94.7996 363.5 94.7996C369.1 94.7996 373.7 99.3996 373.7 105C373.7 105.5 373.7 106 373.6 106.4H432C437 106.4 441.1 102.3 441.1 97.2996V66.6996C441.1 61.6996 437 57.5996 432 57.5996Z" fill="#F9B000"/>
<path d="M399 81.8C399 87.8 394.8 92.1 388.9 92.1C387.2 92.1 385.6 91.6 384.2 90.8V98.4H377.6V72.2H382.1L382.9 73.7C384.5 72.3 386.5 71.5 388.8 71.5C394.8 71.6 399 75.8 399 81.8ZM392.3 81.8C392.3 79.3 390.5 77.4 388 77.4C385.5 77.4 383.7 79.3 383.7 81.8C383.7 84.3 385.5 86.2 388 86.2C390.5 86.2 392.3 84.4 392.3 81.8Z" fill="white"/>
<path d="M417 91.9998V97.4998H411V91.9998C405 91.6998 400.9 87.4998 400.9 81.7998C400.9 76.0998 405.1 71.8998 411 71.5998V66.2998H417V71.5998C422.9 71.8998 427.1 76.0998 427.1 81.7998C427.1 87.5998 423 91.6998 417 91.9998ZM411.3 86.4998V77.0998C408.9 77.2998 407.3 79.1998 407.3 81.7998C407.2 84.3998 408.9 86.2998 411.3 86.4998ZM420.7 81.7998C420.7 79.1998 419 77.2998 416.6 77.0998V86.4998C419.1 86.2998 420.7 84.3998 420.7 81.7998Z" fill="white"/>
<path d="M363.5 111.099C366.869 111.099 369.6 108.368 369.6 104.999C369.6 101.63 366.869 98.8994 363.5 98.8994C360.131 98.8994 357.4 101.63 357.4 104.999C357.4 108.368 360.131 111.099 363.5 111.099Z" fill="#F9B000"/>
<path d="M441.1 97.3V67C441.1 91.5 432 106.5 373.7 106.5H432C437 106.5 441.1 102.4 441.1 97.3Z" fill="url(#paint3_linear)"/>
<path d="M38.8 120V154.6H29.6L28.6 152.2C25.8 154.5 22.2 155.8 18.2 155.8C7.6 155.8 0 148.1 0 137.3C0 126.6 7.6 119 18.2 119C22.3 119 25.9 120.4 28.8 122.7L30 120H38.8ZM27.5 137.4C27.5 132.9 24.2 129.5 19.7 129.5C15.2 129.5 11.9 132.9 11.9 137.4C11.9 141.9 15.2 145.3 19.7 145.3C24.2 145.3 27.5 141.9 27.5 137.4Z" fill="#F9B000"/>
<path d="M77.8999 144.701C77.8999 150.501 73.2999 154.701 66.5999 154.701H46.3999V120.101H66.3999C72.5999 120.101 76.8999 123.701 76.8999 128.801C76.8999 132.101 75.0999 134.901 72.1999 136.301C75.6999 137.701 77.8999 140.701 77.8999 144.701ZM62.7999 127.601H57.4999V133.401H62.7999C64.6999 133.401 65.8999 132.201 65.8999 130.401C65.8999 128.801 64.6999 127.601 62.7999 127.601ZM66.3999 143.601C66.3999 141.701 65.1999 140.501 63.0999 140.501H57.3999V146.601H63.0999C65.1999 146.701 66.3999 145.501 66.3999 143.601Z" fill="#F9B000"/>
<path d="M113.7 130.401H102.8V154.701H91.1002V130.401H80.2002V120.101H113.7V130.401Z" fill="#F9B000"/>
<path d="M115.8 137.4C115.8 126.7 123.9 119 135.2 119C146.5 119 154.6 126.7 154.6 137.4C154.6 148.1 146.4 155.8 135.2 155.8C123.9 155.8 115.8 148.1 115.8 137.4ZM142.6 137.4C142.6 132.8 139.5 129.7 135.1 129.7C130.8 129.7 127.6 132.9 127.6 137.4C127.6 142 130.7 145.1 135.1 145.1C139.5 145.1 142.6 141.9 142.6 137.4Z" fill="#F9B000"/>
<path d="M159.8 131.5H183.3V142.3H159.8V131.5Z" fill="#F9B000"/>
<path d="M223.8 120.101V154.701H211.9V130.301H202.4V154.701H190.5V120.101H223.8Z" fill="white"/>
<path d="M229.3 137.4C229.3 126.7 237.4 119 248.7 119C260 119 268.1 126.7 268.1 137.4C268.1 148.1 259.9 155.8 248.7 155.8C237.4 155.8 229.3 148.1 229.3 137.4ZM256.2 137.4C256.2 132.8 253.1 129.7 248.7 129.7C244.3 129.7 241.2 132.9 241.2 137.4C241.2 142 244.3 145.1 248.7 145.1C253.1 145.1 256.2 141.9 256.2 137.4Z" fill="white"/>
<path d="M311 144.201V162.801H300.8V154.701H280.9V162.801H270.7V144.201H274.6C276.8 141.801 277.6 137.101 279.1 120.101H306.7V144.201H311ZM286.1 144.201H295.5V130.001H289.1C288.6 137.501 287.7 141.701 286.1 144.201Z" fill="white"/>
<path d="M353.1 138.3C353.1 148.9 345.6 155.8 334.2 155.8C322.1 155.8 314.8 147.7 314.8 134.3C314.8 119.4 321.3 110.6 334.8 107.3L347.6 104.2V115.3L334.8 118.4C330 119.6 327 121.8 326.1 124.9C329.1 122.6 332.5 121.5 336.2 121.5C346.2 121.5 353.1 128.4 353.1 138.3ZM341.5 138.1C341.5 133.8 338.4 130.7 334.2 130.7C330 130.7 326.9 133.8 326.9 138.1C326.9 142.4 330 145.5 334.2 145.5C338.4 145.5 341.5 142.3 341.5 138.1Z" fill="white"/>
<path d="M356.6 137.4C356.6 126.7 364.7 119 376 119C387.3 119 395.4 126.7 395.4 137.4C395.4 148.1 387.2 155.8 376 155.8C364.8 155.8 356.6 148.1 356.6 137.4ZM383.5 137.4C383.5 132.8 380.4 129.7 376 129.7C371.6 129.7 368.5 132.9 368.5 137.4C368.5 142 371.6 145.1 376 145.1C380.4 145.1 383.5 141.9 383.5 137.4Z" fill="white"/>
<path d="M439.4 137.4C439.4 148.2 431.8 155.9 421.2 155.9C418.1 155.9 415.2 155.1 412.8 153.6V167.2H401V120.1H409.1L410.6 122.9C413.4 120.4 417.1 119 421.2 119C431.8 118.9 439.4 126.6 439.4 137.4ZM427.4 137.4C427.4 132.9 424.1 129.5 419.6 129.5C415.1 129.5 411.8 132.9 411.8 137.4C411.8 141.9 415.1 145.3 419.6 145.3C424.1 145.3 427.4 141.9 427.4 137.4Z" fill="white"/>
<path opacity="0.15" d="M306.6 120.1H279C277.5 137.1 276.7 141.8 274.5 144.2H270.6V146.9C284.3 146.6 297.8 146.2 310.9 145.6V144.1H306.5V120.1H306.6ZM295.5 144.2H286.1C287.6 141.7 288.5 137.5 289.1 130.1H295.5V144.2ZM76.7999 128.8C76.7999 123.6 72.4999 120.1 66.2999 120.1H46.2999V136C55.8999 137.3 65.8999 138.5 76.2999 139.6C75.2999 138.2 73.8999 137.1 72.0999 136.4C74.9999 134.8 76.7999 132.1 76.7999 128.8ZM62.7999 133.4H57.4999V127.6H62.7999C64.6999 127.6 65.8999 128.8 65.8999 130.5C65.8999 132.2 64.6999 133.4 62.7999 133.4ZM80.1999 130.4H91.0999V141C94.9999 141.4 98.8999 141.7 102.8 142V130.4H113.7V120.1H80.1999V130.4ZM28.6999 122.7C25.7999 120.3 22.1999 119 18.0999 119C10.6999 119 4.7999 122.7 1.8999 128.7C6.0999 129.5 10.3999 130.4 14.8999 131.1C16.1999 130.1 17.7999 129.5 19.6999 129.5C22.4999 129.5 24.8999 130.9 26.1999 133C30.2999 133.7 34.4999 134.3 38.7999 134.9V120H29.8999L28.6999 122.7ZM336.1 121.5C332.5 121.5 329.1 122.6 326 124.9C327 121.8 329.9 119.5 334.7 118.4L347.5 115.3V104.2L334.7 107.3C321.3 110.6 314.7 119.4 314.7 134.3C314.7 138.6 315.4 142.3 316.8 145.4C321.4 145.2 326 144.9 330.6 144.7C328.3 143.5 326.8 141.1 326.8 138.1C326.8 133.8 329.9 130.7 334.1 130.7C338.3 130.7 341.4 133.8 341.4 138.1C341.4 140.7 340.2 142.9 338.4 144.2C343.1 143.9 347.8 143.6 352.4 143.3C352.8 141.7 353 140.1 353 138.3C353.1 128.4 346.2 121.5 336.1 121.5ZM135.2 118.9C123.9 118.9 115.8 126.6 115.8 137.3C115.8 139.3 116.1 141.2 116.6 143C121.4 143.3 126.3 143.7 131.2 144C129 142.7 127.7 140.3 127.7 137.3C127.7 132.7 130.8 129.6 135.2 129.6C139.5 129.6 142.7 132.8 142.7 137.3C142.7 140.7 141 143.3 138.4 144.4C143.2 144.7 148.1 144.9 153 145.2C154.1 142.8 154.7 140.2 154.7 137.3C154.6 126.6 146.4 118.9 135.2 118.9ZM159.8 142.3H183.3V131.5H159.8V142.3ZM376.1 118.9C364.8 118.9 356.7 126.6 356.7 137.3C356.7 139.3 357 141.1 357.5 142.8C361.7 142.5 365.8 142.2 369.9 141.8C369.1 140.6 368.6 139 368.6 137.2C368.6 132.6 371.7 129.5 376.1 129.5C380.5 129.5 383.6 132.7 383.6 137.2C383.6 138.5 383.4 139.6 382.9 140.6C387.1 140.2 391.3 139.8 395.4 139.4C395.5 138.7 395.5 138 395.5 137.2C395.5 126.6 387.3 118.9 376.1 118.9ZM248.7 118.9C237.4 118.9 229.3 126.6 229.3 137.3C229.3 141 230.3 144.3 232 147.1C233.3 147.1 234.6 147.1 235.9 147.1C245.9 147.1 255.7 147 265.5 146.9C267.2 144.2 268.1 140.9 268.1 137.3C268.1 126.6 260 118.9 248.7 118.9ZM248.7 145.1C244.4 145.1 241.2 141.9 241.2 137.4C241.2 132.8 244.3 129.7 248.7 129.7C253.1 129.7 256.2 132.9 256.2 137.4C256.2 141.9 253.1 145.1 248.7 145.1ZM190.6 146.6C194.5 146.7 198.5 146.8 202.5 146.9V130.3H212V147C215.9 147.1 219.9 147.1 223.9 147.1V120H190.6V146.6V146.6ZM421.2 118.9C417.1 118.9 413.4 120.3 410.6 122.8L409.1 120H401V138.9C404.7 138.5 408.3 138.1 411.9 137.6C411.9 137.5 411.9 137.4 411.9 137.3C411.9 132.8 415.2 129.4 419.7 129.4C423.6 129.4 426.6 132 427.3 135.7C431.3 135.1 435.3 134.6 439.2 134C437.7 125 430.7 118.9 421.2 118.9Z" fill="url(#paint4_linear)"/>
<path d="M111.2 59.7003L49.1 2.00027C48.2 1.10027 46.8 2.30027 47.5 3.40027L96.3 72.7003C99.7 77.5003 106.4 78.3003 110.9 74.5003C115.4 70.7003 115.5 63.8003 111.2 59.7003ZM104.6 70.8003C102.6 70.8003 101 69.2003 101 67.2003C101 65.2003 102.6 63.6003 104.6 63.6003C106.6 63.6003 108.2 65.2003 108.2 67.2003C108.2 69.2003 106.5 70.8003 104.6 70.8003Z" fill="url(#paint5_linear)"/>
<path d="M111.2 59.7002L49.1002 2.00015C48.6002 1.60015 48.0002 1.70015 47.7002 2.00015L102.2 64.5002C102.8 63.9002 103.7 63.6002 104.6 63.6002C106.6 63.6002 108.2 65.2001 108.2 67.2001C108.2 68.3001 107.7 69.3002 106.9 69.9002L110.9 74.5002C115.4 70.7002 115.5 63.8002 111.2 59.7002Z" fill="#F9B000"/>
</g>
<defs>
<linearGradient id="paint0_linear" x1="85.992" y1="66.2864" x2="66.1392" y2="82.3629" gradientUnits="userSpaceOnUse">
<stop stop-color="#EF7D00"/>
<stop offset="0.8652" stop-color="#EF7D00" stop-opacity="0"/>
</linearGradient>
<linearGradient id="paint1_linear" x1="75.5488" y1="40.245" x2="38.6712" y2="71.189" gradientUnits="userSpaceOnUse">
<stop offset="0.0509014" stop-color="#EE7203"/>
<stop offset="0.5837" stop-color="#EE7203" stop-opacity="0"/>
</linearGradient>
<linearGradient id="paint2_linear" x1="264.706" y1="94.3607" x2="61.8741" y2="-22.7444" gradientUnits="userSpaceOnUse">
<stop stop-color="white"/>
<stop offset="0.8543" stop-color="white" stop-opacity="0"/>
</linearGradient>
<linearGradient id="paint3_linear" x1="428.617" y1="112.052" x2="403.148" y2="81.6997" gradientUnits="userSpaceOnUse">
<stop stop-color="#EF7D00"/>
<stop offset="0.0374229" stop-color="#EF7D00" stop-opacity="0.9553"/>
<stop offset="0.838" stop-color="#EF7D00" stop-opacity="0"/>
</linearGradient>
<linearGradient id="paint4_linear" x1="220.515" y1="147.206" x2="220.515" y2="104.219" gradientUnits="userSpaceOnUse">
<stop stop-color="white"/>
<stop offset="0.1029" stop-color="white" stop-opacity="0.8971"/>
<stop offset="1" stop-color="white" stop-opacity="0"/>
</linearGradient>
<linearGradient id="paint5_linear" x1="47.2913" y1="39.3139" x2="114.363" y2="39.3139" gradientUnits="userSpaceOnUse">
<stop offset="0.0322917" stop-color="#EE7203"/>
<stop offset="0.7419" stop-color="#EE7203" stop-opacity="0"/>
</linearGradient>
<clipPath id="clip0">
<rect width="441.1" height="167.2" fill="white"/>
</clipPath>
</defs>
</svg>
