<svg width="64" height="64" viewBox="0 0 64 64" fill="none" xmlns="http://www.w3.org/2000/svg"><path d="M34.05 4.1c-.8 0-1.59.03-2.37.09v6.22A2.88 2.88 0 0 1 29 13.28 16.62 16.62 0 0 0 13.28 29a2.88 2.88 0 0 1-2.87 2.71H4.19A29.95 29.95 0 1 0 34.05 4.1zm12.86 42.81a18.18 18.18 0 1 1 5.33-12.86 18.1 18.1 0 0 1-5.33 12.86z" fill="#FFCE1B"/><path d="M34.05 19.36a14.69 14.69 0 1 0 14.69 14.69 14.71 14.71 0 0 0-14.69-14.69zm0 3.17a1.65 1.65 0 1 1-1.64 1.65 1.64 1.64 0 0 1 1.64-1.65zm-10 13.26a1.65 1.65 0 1 1 .257-3.291 1.65 1.65 0 0 1-.258 3.29zm10 10a1.651 1.651 0 1 1 1.64-1.64 1.64 1.64 0 0 1-1.64 1.61v.03zm0-6.46a5.25 5.25 0 1 1 5.25-5.25 5.25 5.25 0 0 1-5.25 5.22v.03zm11.61-5.15a1.65 1.65 0 1 1-3.291-.257 1.65 1.65 0 0 1 3.29.257zM1.12 29.93h9.29a1.11 1.11 0 0 0 1.12-1.06 18.44 18.44 0 0 1 17.34-17.34 1.11 1.11 0 0 0 1.06-1.12V1.12A1.12 1.12 0 0 0 28.82 0h-.05A30 30 0 0 0 0 28.77a1.12 1.12 0 0 0 1.12 1.16z" fill="#FFCE1B"/></svg>