<svg width="66" height="50" viewBox="0 0 66 50" fill="none" xmlns="http://www.w3.org/2000/svg"><path d="M59.5 42h-53a4 4 0 0 0 0 8h53a4 4 0 0 0 0-8zM62 0H4a4 4 0 0 0-4 4v8a4 4 0 0 0 4 4h58a4 4 0 0 0 4-4V4a4 4 0 0 0-4-4zM7.5 14a6 6 0 1 1 0-12 6 6 0 0 1 0 12zm17 0a6 6 0 1 1 0-12 6 6 0 0 1 0 12zm17 0a6 6 0 1 1 0-12 6 6 0 0 1 0 12zm17 0a6 6 0 1 1 0-12 6 6 0 0 1 0 12z" fill="#FFCE1B"/><path d="M2.12 11c1.56 6.12 5.79 23.64 5.38 31h6S16 15 14 10c-.82-2 .94 4.15-5 5-7 1-7.08-4.82-6.88-4zm61.6 0c-1.55 6.13-5.78 23.65-5.37 31h-6s-2.5-27-.5-32c.81-2-.94 4.15 5 5 7 1 7.08-4.82 6.87-4zM21.79 42l-2.03-27h10l-1.08 27h-6.89zm16.33 0l-2.03-27h10l-1.08 27h-6.89z" fill="#FFCE1B"/></svg>