<svg width="66" height="66" viewBox="0 0 66 66" fill="none" xmlns="http://www.w3.org/2000/svg"><path d="M46.3 55.21a25.93 25.93 0 0 1-26.6 0M55.21 19.7a25.93 25.93 0 0 1 0 26.6M19.7 10.79a25.93 25.93 0 0 1 26.6 0M10.79 46.3a25.93 25.93 0 0 1 0-26.6" stroke="#FFCE1B" stroke-width="3" stroke-miterlimit="10"/><path d="M33 46.5c7.456 0 13.5-6.044 13.5-13.5S40.456 19.5 33 19.5 19.5 25.544 19.5 33 25.544 46.5 33 46.5z" fill="#FFCE1B" stroke="#FFCE1B" stroke-width="3" stroke-miterlimit="10"/><path d="M61.13 9.366l1.873 1.874-45.396 45.396a9 9 0 0 1-12.728 0l-1.874-1.874L48.402 9.366a9 9 0 0 1 12.728 0z" fill="#FFCE1B" stroke="#FFCE1B" stroke-width="3" stroke-miterlimit="10"/><path d="M56.634 61.129l-1.874 1.873L9.364 17.606a9 9 0 0 1 0-12.728l1.874-1.874 45.396 45.397a9 9 0 0 1 0 12.728z" fill="#FFCE1B" stroke="#FFCE1B" stroke-width="3" stroke-miterlimit="10"/></svg>