<svg width="64" height="48" viewBox="0 0 64 48" fill="none" xmlns="http://www.w3.org/2000/svg"><path d="M58.7 5.31V2.64A2.67 2.67 0 0 0 56 0h-8a2.68 2.68 0 0 0-2.67 2.67v2.67h-.78L43.46 4.2a5.38 5.38 0 0 0-3.77-1.56H24.31a5.38 5.38 0 0 0-3.77 1.56l-1.11 1.11h-.78V2.64A2.68 2.68 0 0 0 16 0H8a2.67 2.67 0 0 0-2.7 2.64v2.67A5.34 5.34 0 0 0 0 10.65v32A5.34 5.34 0 0 0 5.3 48h53.4a5.34 5.34 0 0 0 5.3-5.31v-32a5.34 5.34 0 0 0-5.3-5.38zM14.64 18.66H9.3a1.34 1.34 0 0 1 0-2.67h5.34a1.337 1.337 0 0 1 1.456 1.335 1.34 1.34 0 0 1-1.456 1.335zm40.06 0h-1.34V20a1.34 1.34 0 1 1-2.67 0v-1.34h-1.33a1.34 1.34 0 1 1 0-2.67h1.33v-1.34a1.34 1.34 0 0 1 2.67 0V16h1.34a1.34 1.34 0 0 1 0 2.67v-.01z" fill="#FFCE1B"/></svg>