<svg width="61" height="61" viewBox="0 0 61 61" fill="none" xmlns="http://www.w3.org/2000/svg"><path d="M12 38.68L9.87 36.6l-7.26 7.26L5.72 47a6.66 6.66 0 1 0 6.64 11.08 6.56 6.56 0 0 0 1.64-2.8l3.11 3.11 7.26-7.26-2.08-2.08 1.76-1.76-7.64-13.1L12 38.68zm5.83-6.84l8.35 14.31L29 43.37l-8.39-14.32-2.78 2.79zm5.6-5.6l8.35 14.31 2.78-2.78-8.35-14.31-2.78 2.78zm5.57-5.6L37.38 35l2.78-2.78-8.35-14.36L29 20.64zM34.63 15L43 29.35l2.78-2.78-8.37-14.31L34.63 15zm22.73-4.11A5.579 5.579 0 0 0 59 9.76 5.49 5.49 0 0 0 51.24 2a5.582 5.582 0 0 0-1.13 1.65L46.47 0l-7.26 7.26 2.08 2.08-1.78 1.78 7.64 13.1 4.51-4.51 2.08 2.08L61 14.53l-3.64-3.64z" fill="#FFCE1B"/></svg>