<svg width="182" height="98" viewBox="0 0 182 98" fill="none" xmlns="http://www.w3.org/2000/svg">
<path d="M142.001 97.5454C139.288 97.5454 136.575 96.3449 134.809 94.1967C127.238 85.0985 119.919 75.558 113.169 65.8279C106.355 56.0979 99.9198 45.9888 93.9894 35.7533C91.7812 31.8991 92.5383 26.9709 95.819 24.0014C100.74 19.5786 105.976 15.4086 111.339 11.6177C116.765 7.82676 122.443 4.35174 128.247 1.19264C132.159 -0.892373 137.017 0.0553585 139.856 3.46719C147.427 12.5654 154.745 22.1059 161.496 31.836C168.309 41.566 174.745 51.6751 180.675 61.9106C182.883 65.7648 182.126 70.693 178.846 73.5993C173.925 78.0221 168.688 82.1921 163.325 85.983C157.9 89.774 152.222 93.249 146.417 96.4081C145.029 97.1663 143.515 97.5454 142.001 97.5454ZM132.664 3.34083C131.654 3.34083 130.645 3.59356 129.761 4.09901C124.083 7.13176 118.468 10.6068 113.169 14.2713C107.869 17.9991 102.759 22.0427 97.901 26.4023C95.6928 28.3609 95.1881 31.6464 96.7023 34.1737C102.633 44.346 109.005 54.392 115.755 63.9957C122.506 73.6625 129.698 83.0767 137.269 92.1117C139.162 94.3863 142.379 95.0181 144.966 93.6281C150.644 90.5953 156.259 87.1203 161.559 83.4558C166.858 79.728 171.969 75.6843 176.827 71.3248C179.035 69.3661 179.54 66.0807 178.088 63.5534C172.158 53.3811 165.786 43.3351 159.035 33.6682C152.285 24.0014 145.092 14.5872 137.522 5.5522C136.26 4.09901 134.43 3.34083 132.664 3.34083Z" fill="#1C1C1B"/>
<path d="M109.762 40.3655C109.257 40.3655 108.752 40.1128 108.5 39.6705C107.995 38.9755 108.185 37.9646 108.879 37.4591L136.449 18.1254C137.143 17.62 138.152 17.8095 138.657 18.5045C139.162 19.1995 138.973 20.2104 138.279 20.7159L110.708 40.0496C110.393 40.2392 110.077 40.3655 109.762 40.3655Z" fill="#1C1C1B"/>
<path d="M114.62 47.0629C114.115 47.0629 113.61 46.8102 113.358 46.3679C112.853 45.6729 113.043 44.662 113.737 44.1565L141.307 24.8228C142.001 24.3173 143.01 24.5069 143.515 25.2019C144.02 25.8969 143.831 26.9078 143.137 27.4133L115.566 46.747C115.251 46.9997 114.935 47.0629 114.62 47.0629Z" fill="#1C1C1B"/>
<path d="M140.487 82.1921C139.162 82.1921 137.9 81.5603 137.143 80.423L134.683 76.948C133.358 75.1157 133.862 72.5252 135.692 71.1984L147.427 62.9847C147.742 62.732 148.184 62.6688 148.625 62.732C149.067 62.7952 149.383 63.0479 149.635 63.3638L154.998 71.0089C155.25 71.3248 155.313 71.7671 155.25 72.2093C155.187 72.6516 154.934 72.9675 154.619 73.2202L142.884 81.4339C142.064 81.9394 141.244 82.1921 140.487 82.1921ZM147.868 66.5229L137.458 73.8521C137.017 74.168 136.954 74.7366 137.206 75.1789L139.667 78.6539C139.982 79.0962 140.55 79.1594 140.992 78.9066L151.401 71.5775L147.868 66.5229Z" fill="#1C1C1B"/>
<path d="M153.61 73.5361C153.105 73.5361 152.6 73.2834 152.348 72.8411L146.985 65.1961C146.733 64.8801 146.67 64.4379 146.733 63.9956C146.796 63.5533 147.048 63.2374 147.364 62.9847L159.098 54.771C160.928 53.4442 163.515 53.9496 164.84 55.7819L167.3 59.2569C168.625 61.0892 168.12 63.6797 166.291 65.0065L154.556 73.2202C154.24 73.4097 153.925 73.5361 153.61 73.5361ZM150.455 64.6906L153.988 69.7452L164.398 62.416C164.84 62.1001 164.903 61.5315 164.65 61.0892L162.19 57.6142C161.874 57.1719 161.307 57.1087 160.865 57.3615L150.455 64.6906Z" fill="#1C1C1B"/>
<path d="M78.0907 55.5293C72.1602 55.5293 66.2929 53.4443 61.7504 49.6534C61.0564 49.0847 60.9933 48.137 61.498 47.442C62.0658 46.747 63.0753 46.6838 63.7062 47.1893C67.7439 50.4747 72.8542 52.307 78.0907 52.307C90.3933 52.307 100.362 42.7033 100.803 30.3828C100.803 29.4983 101.56 28.8665 102.443 28.8665C103.327 28.8665 104.021 29.6246 103.958 30.5092C103.453 44.5356 92.0967 55.5293 78.0907 55.5293Z" fill="#1C1C1B"/>
<path d="M3.95981 96.724C3.26582 96.724 2.63492 96.2185 2.44565 95.5235L0.426768 87.3099C0.300588 86.678 0.489858 85.983 1.05767 85.6039L5.91561 82.1921L8.18685 75.3684C8.31303 75.0525 8.43921 74.7998 8.69157 74.6103L14.3697 70.1243L16.6409 63.2375C16.7671 62.9216 16.8933 62.6688 17.1456 62.4793L22.8238 57.9934L25.095 51.1065C25.1581 50.9802 25.2212 50.8538 25.2843 50.7274L28.565 46.0519C28.8173 45.736 29.1959 45.4833 29.5744 45.4201C30.016 45.3569 30.3946 45.4201 30.7731 45.6729L41.183 53.002C41.877 53.5074 42.0662 54.5184 41.5615 55.2134L13.6126 95.1444C13.3602 95.5235 12.9186 95.7763 12.477 95.8394L4.14908 96.724C4.08599 96.724 4.0229 96.724 3.95981 96.724ZM3.70745 87.6258L5.15853 93.4385L11.4675 92.7435L38.0916 54.7079L30.2684 49.2111L27.9971 52.4333L25.6628 59.5097C25.5366 59.8257 25.4104 60.0784 25.1581 60.2679L19.48 64.7539L17.2087 71.6407C17.0826 71.9566 16.9564 72.2093 16.704 72.3989L11.0259 76.8848L8.75466 83.7717C8.62848 84.0876 8.43921 84.4035 8.18685 84.593L3.70745 87.6258Z" fill="#1C1C1B"/>
<path d="M3.9598 96.724C3.64435 96.724 3.3289 96.6609 3.07654 96.4081C2.38255 95.9027 2.19328 94.8918 2.698 94.1968L33.7383 50.3484C34.243 49.6534 35.2525 49.4638 35.9465 49.9693C36.6405 50.4747 36.8297 51.4857 36.325 52.1807L5.28469 96.029C4.96924 96.4713 4.46452 96.724 3.9598 96.724Z" fill="#1C1C1B"/>
<path d="M64.7787 28.8664L45.2839 15.1559C42.1925 13.0077 37.9654 13.5764 35.568 16.4827L22.5084 32.2151C19.7955 35.5006 20.4264 40.3656 23.8963 42.7665L46.6088 58.6884C50.1418 61.1525 55.0629 60.0152 57.1448 56.2243L66.9869 38.2174C68.7534 35.0583 67.807 30.9515 64.7787 28.8664ZM57.7757 35.4374C56.3877 37.4592 53.6118 37.9015 51.5929 36.5115L43.0126 30.5092C40.9938 29.1192 40.5521 26.3392 41.9401 24.3173C43.3281 22.2955 46.1041 21.8532 48.1229 23.2432L56.7663 29.3087C58.7221 30.6987 59.2268 33.4787 57.7757 35.4374Z" fill="#FFCE1B"/>
<path d="M50.7727 61.6579C49.0062 61.6579 47.1766 61.0893 45.7255 60.0784L23.0131 44.1565C20.9942 42.7665 19.6693 40.5551 19.3538 38.091C19.0384 35.6269 19.7324 33.1628 21.3096 31.2673L34.3693 15.535C37.2714 11.9968 42.5079 11.3018 46.2302 13.9554L65.7251 27.666C69.3843 30.2564 70.583 35.1846 68.3748 39.1651L58.5328 57.0456C57.3341 59.257 55.2521 60.8366 52.7916 61.4052C52.1607 61.5948 51.4667 61.6579 50.7727 61.6579ZM41.1199 15.4718C39.4796 15.4718 37.8392 16.1668 36.7667 17.4936L23.7071 33.226C22.6976 34.4896 22.256 36.006 22.4453 37.5856C22.6345 39.1651 23.5178 40.5551 24.8427 41.5028L47.5551 57.4247C48.88 58.3725 50.5203 58.6884 52.0976 58.3093C53.6748 57.9302 54.9997 56.9193 55.7568 55.5293L65.5989 37.5224C66.9869 34.9951 66.2298 31.836 63.8954 30.1301L44.3375 16.4827C43.3912 15.7877 42.2555 15.4718 41.1199 15.4718ZM54.1796 38.9124C52.9809 38.9124 51.7821 38.5333 50.7727 37.8383L42.1294 31.7728C40.8045 30.8251 39.9212 29.4982 39.6688 27.9187C39.4165 26.3391 39.7319 24.7596 40.6783 23.4328C42.571 20.7159 46.3564 20.0841 49.0693 21.9796L57.5864 27.9819C58.9113 28.9296 59.7946 30.2564 60.0469 31.836C60.2993 33.4155 59.9839 34.9951 59.0375 36.3219C57.9019 38.0278 56.0723 38.9124 54.1796 38.9124ZM45.5362 24.0014C44.653 24.0014 43.7697 24.4437 43.2019 25.2019C42.7603 25.8337 42.571 26.5919 42.7603 27.3501C42.9495 28.1082 43.3281 28.7401 43.959 29.1823L52.6023 35.2478C53.8641 36.1324 55.6937 35.8165 56.577 34.5528C57.0186 33.921 57.2079 33.1628 57.0186 32.4046C56.8924 31.6464 56.4508 31.0146 55.8199 30.5723L47.1766 24.5069C46.6718 24.1909 46.104 24.0014 45.5362 24.0014Z" fill="#FFCE1B"/>
<path d="M53.0438 36.006C52.5391 33.921 52.2236 31.7728 52.2236 29.5614C52.2236 15.2822 63.8322 3.65674 78.0906 3.65674C89.0052 3.65674 98.7841 10.5436 102.443 20.8423L99.4781 21.9164C96.2605 12.8813 87.6803 6.81584 78.0906 6.81584C65.5356 6.81584 55.3781 16.9882 55.3781 29.5614C55.3781 31.4569 55.6305 33.3523 56.0721 35.2478L53.0438 36.006Z" fill="#1C1C1B"/>
</svg>
