<?xml version="1.0" encoding="utf-8"?>
<!-- Generator: Adobe Illustrator 24.3.0, SVG Export Plug-In . SVG Version: 6.00 Build 0)  -->
<svg version="1.1" id="Слой_1" xmlns="http://www.w3.org/2000/svg" xmlns:xlink="http://www.w3.org/1999/xlink" x="0px" y="0px"
	 width="441.1px" height="167.2px" viewBox="0 0 441.1 167.2" style="enable-background:new 0 0 441.1 167.2;" xml:space="preserve"
	>
<style type="text/css">
	.st0{fill:url(#SVGID_1_);}
	.st1{fill:#F9B000;}
	.st2{fill:url(#SVGID_2_);}
	.st3{fill:url(#SVGID_3_);}
	.st4{opacity:0.13;fill:url(#SVGID_4_);}
	.st5{fill:#FFFFFF;}
	.st6{fill:url(#SVGID_5_);}
	.st7{opacity:0.15;fill:url(#SVGID_6_);}
	.st8{fill:url(#SVGID_7_);}
</style>
<path d="M271.2,35.5L192.5,6.6C180.5,2.2,168,0,155.3,0c-17.6,0-35.1,4.4-50.6,12.6c-8.5,4.5-18.5,5.2-27.6,1.8l-8.1-3l26.6,23.2
	l14.9-7.9c10.7-5.7,22.3-9.6,34.3-10.9c14.5-1.6,28.8,0.1,42.4,5.1l78.6,28.8c7.8,3.1,12.7,10.8,12.2,19.3c-0.7,10.3-9.7,18-20,18
	h-7.5c-3,3.4-5.2,5.8-9.7,7c5.1-4.2,8.3-10.6,8.3-17.7c0-12.7-10.3-22.9-22.9-22.9c-12.7,0-22.9,10.3-22.9,22.9
	c0,3.9,1,7.5,2.7,10.7H96.6v15.3h160.9c19,0,35.3-14.9,35.7-33.9C293.5,53.8,284.9,40.9,271.2,35.5z"/>
<path d="M205.6,34.4l-24.7-8.2c-8.1-2.7-16.7-4.1-25.4-4.1c-12,0-23.9,2.7-34.6,7.8c8.4,5.2,18.1,8,28,8H205
	C207.1,37.9,207.5,35.1,205.6,34.4z"/>
<linearGradient id="SVGID_1_" gradientUnits="userSpaceOnUse" x1="19.3332" y1="75.9489" x2="90.8366" y2="117.2315">
	<stop  offset="0" style="stop-color:#706F6F"/>
	<stop  offset="0.1655" style="stop-color:#605F5F"/>
	<stop  offset="0.6334" style="stop-color:#30302F"/>
	<stop  offset="0.8718" style="stop-color:#000000"/>
</linearGradient>
<polygon class="st0" points="22.4,87 4.1,102.3 99.4,102.3 99.4,87 "/>
<g>
	<path class="st1" d="M62.5,24.7C46.9,38.5,37.1,58.6,37.1,81h21.5c0-15.1,6.3-28.8,16.4-38.5L62.5,24.7z"/>
</g>
<path class="st1" d="M91.4,76.1l-16.9-24c-1,1.2-11,12.8-9.5,28.8h29.5h2.3C94.7,79.8,92.9,78.1,91.4,76.1z"/>
<path class="st1" d="M111.2,59.7L49.1,2c-0.9-0.9-2.3,0.3-1.6,1.4l48.8,69.3c3.4,4.8,10.1,5.6,14.6,1.8h0
	C115.4,70.7,115.5,63.8,111.2,59.7z M104.6,70.8c-2,0-3.6-1.6-3.6-3.6c0-2,1.6-3.6,3.6-3.6s3.6,1.6,3.6,3.6
	C108.2,69.2,106.5,70.8,104.6,70.8z"/>
<linearGradient id="SVGID_2_" gradientUnits="userSpaceOnUse" x1="85.9918" y1="66.2868" x2="66.139" y2="82.3633">
	<stop  offset="0" style="stop-color:#EF7D00"/>
	<stop  offset="0.8652" style="stop-color:#EF7D00;stop-opacity:0"/>
</linearGradient>
<path class="st2" d="M91.4,76.1l-16.9-24c-1,1.2-11,12.8-9.5,28.8h29.5h2.3C94.7,79.8,92.9,78.1,91.4,76.1z"/>
<linearGradient id="SVGID_3_" gradientUnits="userSpaceOnUse" x1="75.549" y1="40.2448" x2="38.6714" y2="71.1888">
	<stop  offset="5.090144e-02" style="stop-color:#EE7203"/>
	<stop  offset="0.5837" style="stop-color:#EE7203;stop-opacity:0"/>
</linearGradient>
<path class="st3" d="M73.4,40.1L62.5,24.7c-2.5,2.2-4.8,4.6-7,7.1l0,0c3.5,6,3.5,13.3,0.2,19.4c-4.9,9-8,19-8.9,29.7h11.7
	c0-15.1,6.3-28.8,16.4-38.5L73.4,40.1L73.4,40.1z"/>
<linearGradient id="SVGID_4_" gradientUnits="userSpaceOnUse" x1="264.7062" y1="94.3607" x2="61.8742" y2="-22.7444">
	<stop  offset="0" style="stop-color:#FFFFFF"/>
	<stop  offset="0.8543" style="stop-color:#FFFFFF;stop-opacity:0"/>
</linearGradient>
<path class="st4" d="M205.6,34.4l-24.7-8.2c-8.1-2.7-16.7-4.1-25.4-4.1c-12,0-23.9,2.7-34.6,7.8c8.4,5.2,18.1,8,28,8H205
	C207.1,37.9,207.5,35.1,205.6,34.4z M48.7,1.8c-0.1,0-0.1,0-0.2,0c-0.1,0-0.1,0-0.2,0c-0.1,0-0.2,0-0.3,0.1c0,0,0,0,0,0
	c-0.6,0.2-1,1-0.5,1.6l15,21.3l0,0c-0.6,0.5-1.2,1.1-1.8,1.7c0,0-0.1,0.1-0.1,0.1c-2.8,2.7-5.4,5.6-7.8,8.6c6.9,2.9,14,5.7,21.3,8.2
	c0.3-0.3,0.6-0.6,0.9-0.9l1.2,1.7c8.7,3,17.8,5.8,27,8.2L49.1,2C49,1.9,48.9,1.8,48.7,1.8z M226.1,53.4c-8.7,0-16.3,4.9-20.2,12
	c13.4-0.2,26.3-1.2,38.5-2.9C240.2,57,233.5,53.4,226.1,53.4z M271.2,35.5L192.5,6.6C180.5,2.2,168,0,155.3,0
	c-17.6,0-35.1,4.4-50.6,12.6c-8.5,4.5-18.5,5.2-27.6,1.8l-8.1-3l26.6,23.2l14.9-7.9c10.7-5.7,22.3-9.6,34.3-10.9
	c14.5-1.6,28.8,0.1,42.4,5.1l78.6,28.8c3.5,1.4,6.5,3.8,8.6,6.7c5.2-1.4,10.2-3,15-4.7C285.6,44.5,279.3,38.7,271.2,35.5z"/>
<g>
	<path class="st1" d="M432,57.6h-61.4c-5,0-9.1,4.1-9.1,9.1V95c0.7-0.1,1.3-0.2,2-0.2c5.6,0,10.2,4.6,10.2,10.2c0,0.5,0,1-0.1,1.4
		H432c5,0,9.1-4.1,9.1-9.1V66.7C441.1,61.7,437,57.6,432,57.6z"/>
	<path class="st1" d="M432,57.6h-61.4c-5,0-9.1,4.1-9.1,9.1V95c0.7-0.1,1.3-0.2,2-0.2c5.6,0,10.2,4.6,10.2,10.2c0,0.5,0,1-0.1,1.4
		H432c5,0,9.1-4.1,9.1-9.1V66.7C441.1,61.7,437,57.6,432,57.6z"/>
	<g>
		<g>
			<path class="st5" d="M399,81.8c0,6-4.2,10.3-10.1,10.3c-1.7,0-3.3-0.5-4.7-1.3v7.6h-6.6V72.2h4.5l0.8,1.5
				c1.6-1.4,3.6-2.2,5.9-2.2C394.8,71.6,399,75.8,399,81.8z M392.3,81.8c0-2.5-1.8-4.4-4.3-4.4s-4.3,1.9-4.3,4.4s1.8,4.4,4.3,4.4
				C390.5,86.2,392.3,84.4,392.3,81.8z"/>
			<path class="st5" d="M417,92v5.5h-6V92c-6-0.3-10.1-4.5-10.1-10.2c0-5.7,4.2-9.9,10.1-10.2v-5.3h6v5.3
				c5.9,0.3,10.1,4.5,10.1,10.2C427.1,87.6,423,91.7,417,92z M411.3,86.5v-9.4c-2.4,0.2-4,2.1-4,4.7
				C407.2,84.4,408.9,86.3,411.3,86.5z M420.7,81.8c0-2.6-1.7-4.5-4.1-4.7v9.4C419.1,86.3,420.7,84.4,420.7,81.8z"/>
		</g>
	</g>
	<circle class="st1" cx="363.5" cy="105" r="6.1"/>
	<linearGradient id="SVGID_5_" gradientUnits="userSpaceOnUse" x1="428.6174" y1="112.0524" x2="403.1484" y2="81.6997">
		<stop  offset="0" style="stop-color:#EF7D00"/>
		<stop  offset="3.742285e-02" style="stop-color:#EF7D00;stop-opacity:0.9553"/>
		<stop  offset="0.838" style="stop-color:#EF7D00;stop-opacity:0"/>
	</linearGradient>
	<path class="st6" d="M441.1,97.3V67c0,24.5-9.1,39.5-67.4,39.5H432C437,106.5,441.1,102.4,441.1,97.3z"/>
</g>
<g>
	<g>
		<path class="st1" d="M38.8,120v34.6h-9.2l-1-2.4c-2.8,2.3-6.4,3.6-10.4,3.6C7.6,155.8,0,148.1,0,137.3C0,126.6,7.6,119,18.2,119
			c4.1,0,7.7,1.4,10.6,3.7L30,120L38.8,120z M27.5,137.4c0-4.5-3.3-7.9-7.8-7.9c-4.5,0-7.8,3.4-7.8,7.9c0,4.5,3.3,7.9,7.8,7.9
			C24.2,145.3,27.5,141.9,27.5,137.4z"/>
		<path class="st1" d="M77.9,144.7c0,5.8-4.6,10-11.3,10H46.4v-34.6h20c6.2,0,10.5,3.6,10.5,8.7c0,3.3-1.8,6.1-4.7,7.5
			C75.7,137.7,77.9,140.7,77.9,144.7z M62.8,127.6h-5.3v5.8h5.3c1.9,0,3.1-1.2,3.1-3C65.9,128.8,64.7,127.6,62.8,127.6z M66.4,143.6
			c0-1.9-1.2-3.1-3.3-3.1h-5.7v6.1h5.7C65.2,146.7,66.4,145.5,66.4,143.6z"/>
		<path class="st1" d="M113.7,130.4h-10.9v24.3H91.1v-24.3H80.2v-10.3h33.5V130.4z"/>
		<path class="st1" d="M115.8,137.4c0-10.7,8.1-18.4,19.4-18.4c11.3,0,19.4,7.7,19.4,18.4c0,10.7-8.2,18.4-19.4,18.4
			C123.9,155.8,115.8,148.1,115.8,137.4z M142.6,137.4c0-4.6-3.1-7.7-7.5-7.7c-4.3,0-7.5,3.2-7.5,7.7c0,4.6,3.1,7.7,7.5,7.7
			C139.5,145.1,142.6,141.9,142.6,137.4z"/>
		<path class="st1" d="M159.8,131.5h23.5v10.8h-23.5V131.5z"/>
		<path d="M223.8,120.1v34.6h-11.9v-24.4h-9.5v24.4h-11.9v-34.6H223.8z"/>
		<path d="M229.3,137.4c0-10.7,8.1-18.4,19.4-18.4c11.3,0,19.4,7.7,19.4,18.4c0,10.7-8.2,18.4-19.4,18.4
			C237.4,155.8,229.3,148.1,229.3,137.4z M256.2,137.4c0-4.6-3.1-7.7-7.5-7.7s-7.5,3.2-7.5,7.7c0,4.6,3.1,7.7,7.5,7.7
			S256.2,141.9,256.2,137.4z"/>
		<path d="M311,144.2v18.6h-10.2v-8.1h-19.9v8.1h-10.2v-18.6h3.9c2.2-2.4,3-7.1,4.5-24.1h27.6v24.1H311z M286.1,144.2h9.4V130h-6.4
			C288.6,137.5,287.7,141.7,286.1,144.2z"/>
		<path d="M353.1,138.3c0,10.6-7.5,17.5-18.9,17.5c-12.1,0-19.4-8.1-19.4-21.5c0-14.9,6.5-23.7,20-27l12.8-3.1v11.1l-12.8,3.1
			c-4.8,1.2-7.8,3.4-8.7,6.5c3-2.3,6.4-3.4,10.1-3.4C346.2,121.5,353.1,128.4,353.1,138.3z M341.5,138.1c0-4.3-3.1-7.4-7.3-7.4
			c-4.2,0-7.3,3.1-7.3,7.4s3.1,7.4,7.3,7.4C338.4,145.5,341.5,142.3,341.5,138.1z"/>
		<path d="M356.6,137.4c0-10.7,8.1-18.4,19.4-18.4c11.3,0,19.4,7.7,19.4,18.4c0,10.7-8.2,18.4-19.4,18.4
			C364.8,155.8,356.6,148.1,356.6,137.4z M383.5,137.4c0-4.6-3.1-7.7-7.5-7.7s-7.5,3.2-7.5,7.7c0,4.6,3.1,7.7,7.5,7.7
			S383.5,141.9,383.5,137.4z"/>
		<path d="M439.4,137.4c0,10.8-7.6,18.5-18.2,18.5c-3.1,0-6-0.8-8.4-2.3v13.6H401v-47.1h8.1l1.5,2.8c2.8-2.5,6.5-3.9,10.6-3.9
			C431.8,118.9,439.4,126.6,439.4,137.4z M427.4,137.4c0-4.5-3.3-7.9-7.8-7.9s-7.8,3.4-7.8,7.9s3.3,7.9,7.8,7.9
			C424.1,145.3,427.4,141.9,427.4,137.4z"/>
	</g>
	<linearGradient id="SVGID_6_" gradientUnits="userSpaceOnUse" x1="220.5147" y1="147.2053" x2="220.5147" y2="104.2188">
		<stop  offset="0" style="stop-color:#FFFFFF"/>
		<stop  offset="0.1029" style="stop-color:#FFFFFF;stop-opacity:0.8971"/>
		<stop  offset="1" style="stop-color:#FFFFFF;stop-opacity:0"/>
	</linearGradient>
	<path class="st7" d="M306.6,120.1H279c-1.5,17-2.3,21.7-4.5,24.1h-3.9v2.7c13.7-0.3,27.2-0.7,40.3-1.3v-1.5h-4.4V120.1z
		 M295.5,144.2h-9.4c1.5-2.5,2.4-6.7,3-14.1h6.4V144.2z M76.8,128.8c0-5.2-4.3-8.7-10.5-8.7h-20v15.9c9.6,1.3,19.6,2.5,30,3.6
		c-1-1.4-2.4-2.5-4.2-3.2C75,134.8,76.8,132.1,76.8,128.8z M62.8,133.4h-5.3v-5.8h5.3c1.9,0,3.1,1.2,3.1,2.9
		C65.9,132.2,64.7,133.4,62.8,133.4z M80.2,130.4h10.9V141c3.9,0.4,7.8,0.7,11.7,1v-11.6h10.9v-10.3H80.2V130.4z M28.7,122.7
		c-2.9-2.4-6.5-3.7-10.6-3.7c-7.4,0-13.3,3.7-16.2,9.7c4.2,0.8,8.5,1.7,13,2.4c1.3-1,2.9-1.6,4.8-1.6c2.8,0,5.2,1.4,6.5,3.5
		c4.1,0.7,8.3,1.3,12.6,1.9V120l-8.9,0L28.7,122.7z M336.1,121.5c-3.6,0-7,1.1-10.1,3.4c1-3.1,3.9-5.4,8.7-6.5l12.8-3.1v-11.1
		l-12.8,3.1c-13.4,3.3-20,12.1-20,27c0,4.3,0.7,8,2.1,11.1c4.6-0.2,9.2-0.5,13.8-0.7c-2.3-1.2-3.8-3.6-3.8-6.6
		c0-4.3,3.1-7.4,7.3-7.4c4.2,0,7.3,3.1,7.3,7.4c0,2.6-1.2,4.8-3,6.1c4.7-0.3,9.4-0.6,14-0.9c0.4-1.6,0.6-3.2,0.6-5
		C353.1,128.4,346.2,121.5,336.1,121.5z M135.2,118.9c-11.3,0-19.4,7.7-19.4,18.4c0,2,0.3,3.9,0.8,5.7c4.8,0.3,9.7,0.7,14.6,1
		c-2.2-1.3-3.5-3.7-3.5-6.7c0-4.6,3.1-7.7,7.5-7.7c4.3,0,7.5,3.2,7.5,7.7c0,3.4-1.7,6-4.3,7.1c4.8,0.3,9.7,0.5,14.6,0.8
		c1.1-2.4,1.7-5,1.7-7.9C154.6,126.6,146.4,118.9,135.2,118.9z M159.8,142.3h23.5v-10.8h-23.5V142.3z M376.1,118.9
		c-11.3,0-19.4,7.7-19.4,18.4c0,2,0.3,3.8,0.8,5.5c4.2-0.3,8.3-0.6,12.4-1c-0.8-1.2-1.3-2.8-1.3-4.6c0-4.6,3.1-7.7,7.5-7.7
		s7.5,3.2,7.5,7.7c0,1.3-0.2,2.4-0.7,3.4c4.2-0.4,8.4-0.8,12.5-1.2c0.1-0.7,0.1-1.4,0.1-2.2C395.5,126.6,387.3,118.9,376.1,118.9z
		 M248.7,118.9c-11.3,0-19.4,7.7-19.4,18.4c0,3.7,1,7,2.7,9.8c1.3,0,2.6,0,3.9,0c10,0,19.8-0.1,29.6-0.2c1.7-2.7,2.6-6,2.6-9.6
		C268.1,126.6,260,118.9,248.7,118.9z M248.7,145.1c-4.3,0-7.5-3.2-7.5-7.7c0-4.6,3.1-7.7,7.5-7.7s7.5,3.2,7.5,7.7
		C256.2,141.9,253.1,145.1,248.7,145.1z M190.6,146.6c3.9,0.1,7.9,0.2,11.9,0.3v-16.6h9.5V147c3.9,0.1,7.9,0.1,11.9,0.1v-27.1h-33.3
		V146.6z M421.2,118.9c-4.1,0-7.8,1.4-10.6,3.9l-1.5-2.8H401v18.9c3.7-0.4,7.3-0.8,10.9-1.3c0-0.1,0-0.2,0-0.3
		c0-4.5,3.3-7.9,7.8-7.9c3.9,0,6.9,2.6,7.6,6.3c4-0.6,8-1.1,11.9-1.7C437.7,125,430.7,118.9,421.2,118.9z"/>
</g>
<linearGradient id="SVGID_7_" gradientUnits="userSpaceOnUse" x1="47.2913" y1="39.3136" x2="114.3635" y2="39.3136">
	<stop  offset="3.229167e-02" style="stop-color:#EE7203"/>
	<stop  offset="0.7419" style="stop-color:#EE7203;stop-opacity:0"/>
</linearGradient>
<path class="st8" d="M111.2,59.7L49.1,2c-0.9-0.9-2.3,0.3-1.6,1.4l48.8,69.3c3.4,4.8,10.1,5.6,14.6,1.8h0
	C115.4,70.7,115.5,63.8,111.2,59.7z M104.6,70.8c-2,0-3.6-1.6-3.6-3.6c0-2,1.6-3.6,3.6-3.6s3.6,1.6,3.6,3.6
	C108.2,69.2,106.5,70.8,104.6,70.8z"/>
<path class="st1" d="M111.2,59.7L49.1,2c-0.5-0.4-1.1-0.3-1.4,0l54.5,62.5c0.6-0.6,1.5-0.9,2.4-0.9c2,0,3.6,1.6,3.6,3.6
	c0,1.1-0.5,2.1-1.3,2.7l4,4.6v0C115.4,70.7,115.5,63.8,111.2,59.7z"/>
</svg>
