<svg width="181" height="102" viewBox="0 0 181 102" fill="none" xmlns="http://www.w3.org/2000/svg">
<g clip-path="url(#clip0)">
<path d="M33.4399 80.3085C28.377 80.3085 23.3957 78.4275 19.5576 74.5838C15.8013 70.8219 13.7598 65.9151 13.7598 60.6811C13.7598 55.4472 15.8013 50.4586 19.5576 46.7785C27.2337 39.0911 39.7278 39.0911 47.4038 46.7785C55.0799 54.4658 55.0799 66.9782 47.4038 74.6656C43.4841 78.3457 38.5028 80.3085 33.4399 80.3085ZM33.4399 44.9793C29.4386 44.9793 25.4372 46.5331 22.4158 49.559C19.476 52.5031 17.8428 56.4286 17.8428 60.5994C17.8428 64.7702 19.476 68.6956 22.4158 71.6397C28.4586 77.6915 38.4212 77.6915 44.4641 71.6397C50.5069 65.588 50.5069 55.6108 44.4641 49.559C41.4426 46.5331 37.4413 44.9793 33.4399 44.9793Z" fill="#1C1C1B"/>
<path d="M2.57227 99.3633C2.57227 90.4493 6.49196 82.5165 12.6981 77.2826C12.6981 77.2826 20.2109 86.2785 33.3582 86.2785C46.5055 86.2785 54.0183 77.2826 54.0183 77.2826C60.2245 82.5165 64.1442 90.4493 64.1442 99.3633H2.57227Z" fill="#FFCE1B"/>
<path d="M66.349 101.408H0.530762V99.3633C0.530762 90.2039 4.53212 81.5352 11.3916 75.7288L12.9431 74.4203L14.2497 75.9741C14.3314 76.0559 21.3541 84.2339 33.4399 84.2339C45.5256 84.2339 52.4667 76.0559 52.5484 75.9741L53.855 74.4203L55.4065 75.7288C62.3476 81.617 66.2673 90.2039 66.2673 99.3633V101.408H66.349ZM4.69544 97.3188H62.1843C61.6944 90.7764 58.8362 84.6429 54.2633 80.1449C51.3235 82.9255 44.219 88.4048 33.4399 88.4048C22.6607 88.4048 15.5563 82.8437 12.6165 80.1449C7.96185 84.6429 5.1854 90.7764 4.69544 97.3188Z" fill="#FFCE1B"/>
<path d="M63.4093 55.6108C60.2246 55.6108 57.6931 53.0756 57.6931 49.8861C57.6931 46.6967 60.2246 44.1615 63.4093 44.1615C66.5941 44.1615 69.1256 46.6967 69.1256 49.8861C69.1256 53.0756 66.5124 55.6108 63.4093 55.6108ZM63.4093 48.2505C62.5111 48.2505 61.7761 48.9865 61.7761 49.8861C61.7761 50.7857 62.5111 51.5217 63.4093 51.5217C64.3076 51.5217 65.0425 50.7857 65.0425 49.8861C65.0425 48.9865 64.3076 48.2505 63.4093 48.2505Z" fill="#1C1C1B"/>
<path d="M79.7412 47.4326C75.2499 47.4326 71.5752 43.7525 71.5752 39.2546C71.5752 34.7567 75.2499 31.0765 79.7412 31.0765C84.2325 31.0765 87.9073 34.7567 87.9073 39.2546C87.9073 43.7525 84.2325 47.4326 79.7412 47.4326ZM79.7412 35.1656C77.4547 35.1656 75.6582 36.9647 75.6582 39.2546C75.6582 41.5444 77.4547 43.3436 79.7412 43.3436C82.0277 43.3436 83.8242 41.5444 83.8242 39.2546C83.8242 36.9647 81.9461 35.1656 79.7412 35.1656Z" fill="#1C1C1B"/>
<path d="M137.393 59.2091C130.779 59.2091 124.654 56.1014 120.816 50.7857C118.448 51.6853 115.917 52.176 113.385 52.176C102.035 52.176 92.8069 42.9348 92.8069 31.5673C92.8069 20.1998 102.035 10.9586 113.385 10.9586C114.039 10.9586 114.61 10.9586 115.345 11.0404C120.245 4.17081 128.247 0 136.903 0C145.559 0 153.481 4.17081 158.543 11.1221C159.197 11.0404 159.85 11.0404 160.503 11.0404C171.854 11.0404 181.082 20.2816 181.082 31.6491C181.082 43.0165 171.854 52.2577 160.503 52.2577C158.217 52.2577 156.012 51.8488 153.807 51.1128C149.887 56.265 143.845 59.2091 137.393 59.2091ZM121.551 46.206C122.205 46.206 122.94 46.5331 123.266 47.1874C126.288 52.176 131.596 55.1201 137.312 55.1201C142.946 55.1201 148.173 52.2577 151.194 47.5145C151.766 46.6967 152.827 46.3696 153.726 46.7785C155.849 47.678 158.053 48.1687 160.34 48.1687C169.404 48.1687 176.835 40.7267 176.835 31.6491C176.835 22.5714 169.404 15.1294 160.34 15.1294C159.523 15.1294 158.707 15.2112 157.727 15.3747C156.91 15.5383 156.094 15.1294 155.685 14.4752C151.602 7.93271 144.58 4.08903 136.903 4.08903C129.227 4.08903 122.123 7.93271 117.958 14.3934C117.55 15.0476 116.733 15.4565 115.917 15.293C114.937 15.1294 114.12 15.0476 113.304 15.0476C104.239 15.0476 96.8082 22.4896 96.8082 31.5673C96.8082 40.6449 104.239 48.0869 113.304 48.0869C115.835 48.0869 118.285 47.5145 120.571 46.3696C120.98 46.2878 121.225 46.206 121.551 46.206Z" fill="#1C1C1B"/>
<path d="M158.135 39.091H118.693C117.795 39.091 117.223 39.0911 116.815 39.0093C115.753 38.7639 113.222 37.7008 113.549 33.2846C113.63 32.6304 113.794 31.9761 114.202 31.4037C114.039 25.9244 114.284 24.943 115.345 24.0434C116.162 23.3074 116.978 23.3074 118.53 23.1439C118.775 23.1439 119.102 23.0621 119.428 23.0621C119.673 23.0621 119.918 22.9803 120.081 22.9803C120.245 22.8985 120.408 22.8167 120.653 22.8167C121.306 22.6532 122.205 22.326 124.328 21.3447C130.207 18.7277 134.944 18.3188 140.17 19.8726C141.966 20.3633 144.58 21.7536 144.58 21.7536C146.049 22.5714 147.356 23.3074 147.764 23.5528C147.846 23.5528 148.009 23.5528 148.173 23.6345L148.663 23.7163C149.316 23.7981 150.214 23.9617 151.602 24.2888C154.542 24.8612 156.992 25.8426 157.809 26.1697L157.972 26.2515C158.707 26.4969 161.157 27.56 161.892 30.5041C162.463 32.385 162.382 34.5113 161.647 36.4741C161.32 37.2101 160.748 38.2732 159.36 38.9275C158.788 39.091 158.299 39.091 158.135 39.091ZM117.795 35.002C117.795 35.0838 117.795 35.0838 117.795 35.002C117.795 35.0838 117.795 35.002 117.795 35.002ZM117.795 35.002C117.958 35.002 118.367 35.002 118.693 35.002H157.727C157.809 34.9202 157.809 34.9202 157.809 34.9202C158.217 33.7753 158.299 32.6304 157.972 31.4855C157.727 30.4223 156.829 30.0952 156.584 30.0134C156.502 30.0134 156.42 29.9316 156.257 29.9316C155.522 29.6045 153.317 28.7867 150.786 28.2142C149.479 27.9689 148.581 27.8053 147.928 27.7236H147.683C146.948 27.6418 146.539 27.56 146.131 27.3964C145.396 27.0693 142.62 25.4337 142.538 25.4337C142.211 25.2701 140.088 24.207 138.945 23.8799C134.617 22.5714 130.942 22.8985 125.879 25.1066C123.348 26.2515 122.286 26.5786 121.551 26.824L121.225 26.9058C120.816 27.0693 120.408 27.0693 119.755 27.1511C119.51 27.1511 119.183 27.2329 118.938 27.2329H118.775C118.612 27.2329 118.448 27.2329 118.203 27.3147C118.122 28.0507 118.122 29.3592 118.285 32.0579V33.0393L117.55 33.6935C117.55 34.5931 117.713 34.9202 117.795 35.002ZM147.928 23.5528L148.009 23.6345C148.009 23.6345 147.928 23.6345 147.928 23.5528Z" fill="#1C1C1B"/>
<path d="M150.867 40.0723C152.909 40.0723 154.624 38.2732 154.624 36.0651C154.624 33.857 152.909 32.0579 150.867 32.0579C148.826 32.0579 147.111 33.857 147.111 36.0651C147.111 38.355 148.826 40.0723 150.867 40.0723Z" fill="#FFCE1B"/>
<path d="M150.867 40.8902C148.336 40.8902 146.294 38.7639 146.294 36.0652C146.294 33.3664 148.336 31.2401 150.867 31.2401C153.399 31.2401 155.44 33.3664 155.44 36.0652C155.44 38.7639 153.399 40.8902 150.867 40.8902ZM150.867 32.9575C149.234 32.9575 147.928 34.3478 147.928 36.1469C147.928 37.9461 149.234 39.3364 150.867 39.3364C152.501 39.3364 153.807 37.9461 153.807 36.1469C153.807 34.3478 152.501 32.9575 150.867 32.9575Z" fill="#FFCE1B"/>
<path d="M124.165 40.0723C126.206 40.0723 127.921 38.2732 127.921 36.0651C127.921 33.857 126.206 32.0579 124.165 32.0579C122.123 32.0579 120.408 33.857 120.408 36.0651C120.49 38.355 122.123 40.0723 124.165 40.0723Z" fill="#FFCE1B"/>
<path d="M124.165 40.8902C121.633 40.8902 119.592 38.7639 119.592 36.0652C119.592 33.3664 121.633 31.2401 124.165 31.2401C126.696 31.2401 128.738 33.3664 128.738 36.0652C128.738 38.7639 126.696 40.8902 124.165 40.8902ZM124.165 32.9575C122.531 32.9575 121.225 34.3478 121.225 36.1469C121.225 37.9461 122.531 39.3364 124.165 39.3364C125.798 39.3364 127.104 37.9461 127.104 36.1469C127.104 34.3478 125.798 32.9575 124.165 32.9575Z" fill="#FFCE1B"/>
</g>
<defs>
<clipPath id="clip0">
<rect width="180.469" height="101.408" fill="white" transform="translate(0.530762)"/>
</clipPath>
</defs>
</svg>
