<svg width="65" height="36" viewBox="0 0 65 36" fill="none" xmlns="http://www.w3.org/2000/svg">
<path fill-rule="evenodd" clip-rule="evenodd" d="M24.193 0.00195312L30.9552 9.74928L37.7094 0.0134241L37.3912 11.8055L48.6604 7.84991L41.366 17.2132L43.0851 17.7094L42.2787 20.4334L36.5249 18.7727L40.4399 13.7473L34.4064 15.8651L34.5768 9.55071L30.9552 14.7711L27.3415 9.56218L27.5216 15.8663L21.4744 13.7437L25.385 18.7763L21.2389 19.9658L20.437 17.2405L20.5448 17.2095L13.2748 7.85359L24.5302 11.8043L24.193 0.00195312Z" fill="#F13232"/>
<path d="M47.5968 21.7248C47.5968 21.7248 49.8818 19.3692 56.9667 19.0854C60.1139 19.2273 62.169 19.9652 63.4193 20.618L63.3761 21.7248H47.5968Z" fill="#F13232"/>
<path fill-rule="evenodd" clip-rule="evenodd" d="M56.9375 18.3766C56.9581 18.3757 56.9788 18.3758 56.9994 18.3767C60.2505 18.5233 62.4093 19.2882 63.7551 19.9908C63.9993 20.1183 64.1478 20.3727 64.1372 20.6453L64.0941 21.7521C64.0793 22.133 63.7622 22.4343 63.3761 22.4343H47.5967C47.3089 22.4343 47.0489 22.2647 46.9359 22.0034C46.8229 21.742 46.8787 21.4393 47.0778 21.234L47.5967 21.7248C47.0778 21.234 47.0782 21.2337 47.0786 21.2333L47.0794 21.2324L47.0812 21.2306L47.0853 21.2264L47.0964 21.2154C47.1049 21.207 47.1158 21.1965 47.1292 21.1839C47.156 21.1588 47.1926 21.1257 47.2396 21.0857C47.3337 21.0056 47.4693 20.898 47.6516 20.7717C48.0162 20.5188 48.5658 20.192 49.3388 19.8607C50.8858 19.1977 53.3168 18.5216 56.9375 18.3766ZM50.2707 21.0153H62.6122C61.428 20.4756 59.6108 19.9186 56.9647 19.7956C53.8058 19.9252 51.6566 20.4749 50.2707 21.0153Z" fill="#F13232"/>
<path fill-rule="evenodd" clip-rule="evenodd" d="M56.5211 16.6876C54.4926 16.6876 52.4906 17.0409 50.5793 17.7355L36.9421 22.6681C35.1368 23.3772 34.0123 25.0511 34.0447 26.9501C34.088 29.2442 35.9772 31.1408 38.3689 31.3515C39.1595 31.4211 39.7432 32.1103 39.6727 32.8909C39.6021 33.6715 38.9041 34.2479 38.1136 34.1782C34.3836 33.8497 31.2431 30.8655 31.171 27.0015L31.1709 26.9995C31.1176 23.9094 32.9759 21.1606 35.9038 20.0217L35.9362 20.0095L49.5866 15.0721C49.5869 15.072 49.5862 15.0723 49.5866 15.0721C51.8138 14.2628 54.1525 13.8496 56.5211 13.8496C59.1226 13.8496 61.7062 14.354 64.104 15.3163C64.8393 15.6114 65.1931 16.4391 64.8943 17.1652C64.5954 17.8912 63.7571 18.2405 63.0218 17.9454C60.9646 17.1198 58.7483 16.6876 56.5211 16.6876Z" fill="#4A4A4A"/>
<path fill-rule="evenodd" clip-rule="evenodd" d="M51.4052 32.7935C51.4052 32.0098 52.0486 31.3745 52.8423 31.3745H61.1918C61.9855 31.3745 62.6289 32.0098 62.6289 32.7935C62.6289 33.5772 61.9855 34.2125 61.1918 34.2125H52.8423C52.0486 34.2125 51.4052 33.5772 51.4052 32.7935Z" fill="#4A4A4A"/>
<path d="M45.1537 35.9859C47.7649 35.9859 49.8818 33.8958 49.8818 31.3174C49.8818 28.7391 47.7649 26.6489 45.1537 26.6489C42.5425 26.6489 40.4257 28.7391 40.4257 31.3174C40.4257 33.8958 42.5425 35.9859 45.1537 35.9859Z" fill="#F13232"/>
<path d="M17.2309 21.7248C17.2309 21.7248 14.9459 19.3692 7.86097 19.0854C4.74246 19.2273 2.68741 19.951 1.43713 20.6038V21.7248H17.2309Z" fill="#F13232"/>
<path fill-rule="evenodd" clip-rule="evenodd" d="M7.82793 18.3767C7.84866 18.3758 7.86941 18.3757 7.89014 18.3766C11.5109 18.5216 13.9418 19.1977 15.4889 19.8607C16.2619 20.192 16.8114 20.5188 17.1761 20.7717C17.3583 20.898 17.494 21.0056 17.5881 21.0857C17.6351 21.1257 17.6717 21.1588 17.6984 21.1839C17.7118 21.1965 17.7227 21.207 17.7313 21.2154L17.7423 21.2264L17.7465 21.2306L17.7483 21.2324L17.7491 21.2333C17.7494 21.2337 17.7498 21.234 17.2309 21.7248V22.4343H1.43718C1.04033 22.4343 0.718628 22.1167 0.718628 21.7248V20.6038C0.718628 20.3409 0.865899 20.0995 1.10131 19.9766C2.44911 19.2729 4.60816 18.5232 7.82793 18.3767ZM14.5569 21.0153C13.1711 20.4749 11.0219 19.9252 7.86307 19.7957C5.21822 19.9197 3.39589 20.4746 2.21434 21.0153H14.5569Z" fill="#F13232"/>
<path fill-rule="evenodd" clip-rule="evenodd" d="M0.923867 15.24C3.27609 14.3232 5.79756 13.8496 8.32086 13.8496C10.6895 13.8496 13.0271 14.2625 15.2544 15.0718C15.2547 15.0719 15.254 15.0716 15.2544 15.0718L28.9058 20.0095L28.9382 20.0217C31.8661 21.1606 33.7244 23.9094 33.6711 26.9995L33.671 27.0015C33.5989 30.8655 30.4584 33.8497 26.7284 34.1782C25.9379 34.2479 25.2399 33.6715 25.1693 32.8909C25.0988 32.1103 25.6825 31.4211 26.4731 31.3515C28.8647 31.1408 30.7539 29.2443 30.7973 26.9503C30.8298 25.0512 29.7053 23.3772 27.8999 22.6681L14.2627 17.7355C12.3514 17.0409 10.3494 16.6876 8.32086 16.6876C6.1592 16.6876 3.99573 17.0938 1.97918 17.8798C1.24092 18.1675 0.406212 17.8099 0.114796 17.0809C-0.176619 16.352 0.185614 15.5278 0.923867 15.24Z" fill="#4A4A4A"/>
<path fill-rule="evenodd" clip-rule="evenodd" d="M2.19885 32.7935C2.19885 32.0098 2.84226 31.3745 3.63595 31.3745H11.9855C12.7792 31.3745 13.4226 32.0098 13.4226 32.7935C13.4226 33.5772 12.7792 34.2125 11.9855 34.2125H3.63595C2.84226 34.2125 2.19885 33.5772 2.19885 32.7935Z" fill="#4A4A4A"/>
<path d="M19.674 35.9859C22.2852 35.9859 24.402 33.8958 24.402 31.3174C24.402 28.7391 22.2852 26.6489 19.674 26.6489C17.0627 26.6489 14.9459 28.7391 14.9459 31.3174C14.9459 33.8958 17.0627 35.9859 19.674 35.9859Z" fill="#F13232"/>
</svg>
