<svg width="53" height="65" viewBox="0 0 53 65" fill="none" xmlns="http://www.w3.org/2000/svg">
<g clip-path="url(#clip0)">
<path fill-rule="evenodd" clip-rule="evenodd" d="M37.9202 12.7435C35.485 12.7435 33.5109 14.6841 33.5109 17.078C33.5109 19.4718 35.485 21.4124 37.9202 21.4124C40.3554 21.4124 42.3295 19.4718 42.3295 17.078C42.3295 14.6841 40.3554 12.7435 37.9202 12.7435ZM29.9834 17.078C29.9834 12.769 33.5368 9.27588 37.9202 9.27588C42.3035 9.27588 45.8569 12.769 45.8569 17.078C45.8569 21.3869 42.3035 24.88 37.9202 24.88C33.5368 24.88 29.9834 21.3869 29.9834 17.078Z" fill="#4A4A4A"/>
<path fill-rule="evenodd" clip-rule="evenodd" d="M38.9277 30.9281C38.2389 30.251 38.2389 29.1533 38.9277 28.4762L49.1167 18.46C49.8055 17.7829 50.9222 17.7829 51.611 18.46L52.4965 19.3305C53.1852 20.0076 53.1852 21.1053 52.4965 21.7824L42.3074 31.7986C41.6186 32.4756 40.5019 32.4756 39.8131 31.7986L38.9277 30.9281Z" fill="#4A4A4A"/>
<path fill-rule="evenodd" clip-rule="evenodd" d="M29.4089 29.7356C30.2952 26.4927 33.6764 24.5667 36.9701 25.4431C40.246 26.3147 42.2239 29.6336 41.3345 32.8889C41.3344 32.889 41.3345 32.8887 41.3345 32.8889L37.1395 48.2921C37.1391 48.2937 37.1387 48.2953 37.1383 48.2969C36.655 50.1049 35.3844 51.483 33.8067 52.2137C32.6698 53.8945 30.5299 54.7819 28.4166 54.2263L17.28 51.294L14.5261 61.4086L14.5248 61.4136C13.8124 63.9993 11.0998 65.5376 8.46348 64.8358C5.83397 64.1357 4.26928 61.4708 4.98148 58.88C4.98173 58.8791 4.98197 58.8782 4.98222 58.8773L8.92875 44.381C8.9293 44.379 8.92986 44.3769 8.93042 44.3748C9.15649 43.5297 9.69228 42.8856 10.2355 42.4285C10.787 41.9645 11.4383 41.6128 12.082 41.36C13.3132 40.8764 14.8782 40.6187 16.1736 40.9337L16.2076 40.9423L25.6683 43.44L29.4089 29.7356ZM32.8156 30.6353C32.8155 30.6355 32.8156 30.6351 32.8156 30.6353L28.618 46.0135C28.4968 46.4577 28.201 46.8364 27.7957 47.0661C27.3905 47.2959 26.9089 47.358 26.4571 47.2387L15.3144 44.297C14.9635 44.2171 14.1916 44.2655 13.3908 44.5801C13.0137 44.7282 12.7204 44.9021 12.5294 45.0628C12.3861 45.1834 12.345 45.2574 12.3383 45.2698L8.38838 59.7788L8.38701 59.7838C8.18388 60.5211 8.62967 61.2875 9.38561 61.4887C10.135 61.6882 10.9139 61.251 11.1194 60.509C11.1196 60.5084 11.1198 60.5077 11.12 60.5071L14.3286 48.7222C14.4496 48.278 14.7451 47.8992 15.1502 47.6692C15.5553 47.4391 16.0368 47.3768 16.4887 47.4958L29.328 50.8765C29.9895 51.0504 30.6879 50.7192 30.9747 50.1084C31.1778 49.6759 31.5528 49.3447 32.0119 49.1923C32.8464 48.9153 33.4997 48.2675 33.7272 47.4136L33.7296 47.4044L37.9273 31.991C38.3075 30.5998 37.4639 29.1668 36.0484 28.7902C34.6508 28.4183 33.1994 29.232 32.8156 30.6353Z" fill="#4A4A4A"/>
<path fill-rule="evenodd" clip-rule="evenodd" d="M23.444 41.0058C24.1328 40.3287 25.2495 40.3287 25.9383 41.0058L36.6137 51.5C37.3025 52.1771 37.3025 53.2749 36.6137 53.952L35.7283 54.8224C35.0395 55.4995 33.9228 55.4995 33.234 54.8224L22.5586 44.3281C21.8698 43.651 21.8698 42.5533 22.5586 41.8762L23.444 41.0058Z" fill="#4A4A4A"/>
<path d="M8.67754 34.5893L7.05491 31.8499C1.21697 21.8979 4.67388 9.17187 14.7977 3.43301L17.7784 1.73389L19.401 4.47328C25.2389 14.4253 21.782 27.1513 11.6582 32.8902L8.67754 34.5893Z" fill="#F13232"/>
<path fill-rule="evenodd" clip-rule="evenodd" d="M16.8936 0.234215C17.7352 -0.245523 18.813 0.0352072 19.3026 0.861649L20.9289 3.60735C27.2515 14.3856 23.51 28.1716 12.5419 34.3909C12.541 34.3914 12.5402 34.3919 12.5393 34.3923L9.56231 36.0894C8.72073 36.5691 7.64291 36.2884 7.15338 35.4619L5.53075 32.7225L5.52703 32.7162C-0.795727 21.9378 2.94611 8.1514 13.9147 1.9323C13.9154 1.93194 13.916 1.93159 13.9166 1.93124L16.8936 0.234215ZM17.1401 4.10213L15.6824 4.93306L15.6788 4.93516C6.40233 10.1937 3.2308 21.8564 8.58095 30.9808C8.58157 30.9819 8.5822 30.9829 8.58282 30.984L9.31582 32.2215L10.7735 31.3905L10.7772 31.3884C20.0537 26.1299 23.2252 14.4671 17.8749 5.34262L17.1401 4.10213Z" fill="#F13232"/>
<path fill-rule="evenodd" clip-rule="evenodd" d="M1.3974 6.09315C2.08617 5.41607 3.20289 5.41607 3.89166 6.09315L25.0555 26.8978C25.7442 27.5749 25.7443 28.6727 25.0555 29.3497L24.17 30.2202C23.4812 30.8973 22.3645 30.8973 21.6758 30.2202L0.511937 9.41552C-0.176835 8.73844 -0.176835 7.64067 0.511937 6.96359L1.3974 6.09315Z" fill="#4A4A4A"/>
</g>
<defs>
<clipPath id="clip0">
<rect width="53" height="65" fill="white"/>
</clipPath>
</defs>
</svg>
