<svg width="65" height="55" viewBox="0 0 65 55" fill="none" xmlns="http://www.w3.org/2000/svg">
<path d="M20.6071 16.4885H10.1421V14.398L15.081 9.09806C15.7591 8.35199 16.2589 7.70093 16.5805 7.14489C16.9091 6.58885 17.0734 6.06096 17.0734 5.56123C17.0734 4.8785 16.9021 4.34357 16.5595 3.95645C16.217 3.5623 15.7276 3.36522 15.0915 3.36522C14.4064 3.36522 13.8646 3.60453 13.4662 4.08315C13.0747 4.55473 12.879 5.17763 12.879 5.95186H9.83801C9.83801 5.01575 10.0582 4.16057 10.4986 3.38634C10.946 2.6121 11.5752 2.0068 12.3861 1.57041C13.197 1.12699 14.1163 0.905273 15.1439 0.905273C16.7168 0.905273 17.9367 1.28535 18.8035 2.04551C19.6774 2.80566 20.1143 3.87903 20.1143 5.26561C20.1143 6.02577 19.9186 6.8 19.5271 7.58831C19.1356 8.37662 18.4645 9.29514 17.5138 10.3439L14.0429 14.0285H20.6071V16.4885Z" fill="#4A4A4A"/>
<path d="M32.7499 10.1327C32.7499 12.2583 32.313 13.8842 31.4392 15.0104C30.5653 16.1365 29.286 16.6996 27.6013 16.6996C25.9375 16.6996 24.6652 16.1471 23.7844 15.0421C22.9036 13.937 22.4527 12.3534 22.4317 10.2911V7.46162C22.4317 5.31488 22.8721 3.68547 23.7529 2.57339C24.6407 1.46131 25.9165 0.905273 27.5803 0.905273C29.2441 0.905273 30.5164 1.45779 31.3972 2.56284C32.2781 3.66084 32.7289 5.24098 32.7499 7.30325V10.1327ZM29.7195 7.02875C29.7195 5.75479 29.5447 4.82923 29.1952 4.25207C28.8526 3.66788 28.3143 3.37578 27.5803 3.37578C26.8673 3.37578 26.3395 3.6538 25.9969 4.20984C25.6614 4.75884 25.4831 5.62105 25.4622 6.79648V10.5339C25.4622 11.7868 25.6299 12.7194 25.9655 13.3317C26.308 13.937 26.8533 14.2397 27.6013 14.2397C28.3423 14.2397 28.8771 13.9476 29.2057 13.3634C29.5342 12.7792 29.7055 11.8853 29.7195 10.6817V7.02875Z" fill="#4A4A4A"/>
<path d="M42.1663 16.4885H39.1359V4.72717L35.5182 5.85684V3.37578L41.8413 1.09531H42.1663V16.4885Z" fill="#4A4A4A"/>
<path d="M47.5876 8.92914L48.4684 1.11643H57.025V3.66084H50.9536L50.5761 6.9654C51.2962 6.57829 52.0616 6.38473 52.8726 6.38473C54.3266 6.38473 55.4661 6.83871 56.291 7.74668C57.1159 8.65464 57.5283 9.92509 57.5283 11.558C57.5283 12.5504 57.3186 13.4408 56.8992 14.2291C56.4867 15.0104 55.8925 15.6192 55.1166 16.0556C54.3406 16.4849 53.4248 16.6996 52.3692 16.6996C51.4465 16.6996 50.5901 16.5131 49.8002 16.1401C49.0102 15.76 48.3845 15.2286 47.9232 14.5458C47.4688 13.8631 47.2276 13.0854 47.1996 12.2126H50.1986C50.2615 12.8531 50.4817 13.3528 50.8592 13.7118C51.2437 14.0637 51.7436 14.2397 52.3587 14.2397C53.0438 14.2397 53.5716 13.9933 53.9421 13.5006C54.3126 13.0009 54.4979 12.2971 54.4979 11.3891C54.4979 10.5163 54.2847 9.84766 53.8582 9.38312C53.4318 8.91858 52.8271 8.68631 52.0442 8.68631C51.3241 8.68631 50.7404 8.87635 50.293 9.25643L49.9994 9.53093L47.5876 8.92914Z" fill="#4A4A4A"/>
<path d="M16.5505 54.5267H2.85488V51.7909L9.31846 44.8548C10.2059 43.8784 10.86 43.0263 11.2809 42.2986C11.7109 41.571 11.9259 40.8801 11.9259 40.2261C11.9259 39.3326 11.7017 38.6325 11.2534 38.1259C10.8051 37.6101 10.1647 37.3522 9.33219 37.3522C8.43561 37.3522 7.72658 37.6654 7.20511 38.2917C6.69278 38.9089 6.43661 39.7241 6.43661 40.7373H2.45691C2.45691 39.5122 2.74509 38.393 3.32147 37.3798C3.90698 36.3666 4.73037 35.5744 5.79163 35.0033C6.85288 34.423 8.05594 34.1328 9.4008 34.1328C11.4593 34.1328 13.0557 34.6302 14.1902 35.625C15.3338 36.6199 15.9056 38.0246 15.9056 39.8392C15.9056 40.834 15.6494 41.8473 15.1371 42.879C14.6247 43.9106 13.7465 45.1127 12.5022 46.4852L7.95988 51.3073H16.5505V54.5267Z" fill="#F13232"/>
<path d="M32.4419 46.2089C32.4419 48.9907 31.8701 51.1185 30.7265 52.5923C29.5829 54.0661 27.9087 54.803 25.7039 54.803C23.5265 54.803 21.8614 54.0799 20.7086 52.6337C19.5559 51.1876 18.9658 49.115 18.9384 46.4161V42.7132C18.9384 39.9037 19.5147 37.7713 20.6675 36.3159C21.8294 34.8605 23.499 34.1328 25.6764 34.1328C27.8538 34.1328 29.5189 34.8559 30.6716 36.3021C31.8244 37.739 32.4145 39.807 32.4419 42.5059V46.2089ZM28.4759 42.1467C28.4759 40.4794 28.2472 39.2681 27.7898 38.5128C27.3415 37.7483 26.637 37.366 25.6764 37.366C24.7432 37.366 24.0525 37.7298 23.6042 38.4575C23.1651 39.176 22.9318 40.3044 22.9043 41.8427V46.7339C22.9043 48.3735 23.1239 49.594 23.5631 50.3954C24.0113 51.1876 24.7249 51.5837 25.7039 51.5837C26.6736 51.5837 27.3735 51.2014 27.8035 50.4368C28.2335 49.6723 28.4576 48.5025 28.4759 46.9273V42.1467Z" fill="#F13232"/>
<path d="M44.7653 54.5267H40.7993V39.1346L36.0648 40.613V37.366L44.3398 34.3815H44.7653V54.5267Z" fill="#F13232"/>
<path d="M60.5468 46.4852C59.513 47.5076 58.3054 48.0189 56.9239 48.0189C55.1582 48.0189 53.7448 47.4109 52.6835 46.195C51.6222 44.9699 51.0916 43.3211 51.0916 41.2486C51.0916 39.9313 51.3752 38.7247 51.9425 37.6285C52.5188 36.5231 53.3193 35.6665 54.344 35.0586C55.3687 34.4414 56.5214 34.1328 57.8022 34.1328C59.1196 34.1328 60.2907 34.4644 61.3153 35.1276C62.34 35.7909 63.1359 36.7442 63.7032 37.9877C64.2704 39.2313 64.5586 40.6544 64.5677 42.2572V43.7356C64.5677 47.0885 63.7398 49.723 62.0838 51.6389C60.4279 53.5549 58.0813 54.5773 55.0439 54.7063L54.0695 54.7201V51.3902L54.9478 51.3764C58.3969 51.2198 60.2632 49.5894 60.5468 46.4852ZM57.8983 44.9653C58.5387 44.9653 59.0876 44.7995 59.5451 44.4679C60.0116 44.1363 60.3639 43.7356 60.6017 43.2658V41.6216C60.6017 40.2676 60.3456 39.2175 59.8332 38.4713C59.3209 37.7252 58.6348 37.3522 57.7748 37.3522C56.9788 37.3522 56.3247 37.7206 55.8124 38.4575C55.3 39.1852 55.0439 40.1017 55.0439 41.2071C55.0439 42.3033 55.2909 43.206 55.7849 43.9152C56.2881 44.6153 56.9926 44.9653 57.8983 44.9653Z" fill="#F13232"/>
<path fill-rule="evenodd" clip-rule="evenodd" d="M64.4221 11.1415H0V7.21875H64.4221V11.1415Z" fill="#4A4A4A"/>
</svg>
