<svg width="63" height="28" viewBox="0 0 63 28" fill="none" xmlns="http://www.w3.org/2000/svg">
<path fill-rule="evenodd" clip-rule="evenodd" d="M0 1.38751C0 0.62121 0.626801 0 1.4 0H17.556C18.3292 0 18.956 0.62121 18.956 1.38751V26.6125C18.956 27.3788 18.3292 28 17.556 28H1.4C0.626801 28 0 27.3788 0 26.6125V1.38751ZM2.8 2.77502V25.225H16.156V2.77502H2.8Z" fill="#4A4A4A"/>
<path fill-rule="evenodd" clip-rule="evenodd" d="M22.022 1.38751C22.022 0.62121 22.6488 0 23.422 0H39.578C40.3512 0 40.978 0.62121 40.978 1.38751V26.6125C40.978 27.3788 40.3512 28 39.578 28H23.422C22.6488 28 22.022 27.3788 22.022 26.6125V1.38751ZM24.822 2.77502V25.225H38.178V2.77502H24.822Z" fill="#4A4A4A"/>
<path fill-rule="evenodd" clip-rule="evenodd" d="M44.0439 1.38751C44.0439 0.62121 44.6707 0 45.4439 0H61.5999C62.3731 0 62.9999 0.62121 62.9999 1.38751V26.6125C62.9999 27.3788 62.3731 28 61.5999 28H45.4439C44.6707 28 44.0439 27.3788 44.0439 26.6125V1.38751ZM46.8439 2.77502V25.225H60.1999V2.77502H46.8439Z" fill="#4A4A4A"/>
<path d="M48.4433 12.3286L49.2463 5.31787H57.0465V7.60108H51.5118L51.1677 10.5664C51.824 10.219 52.5219 10.0453 53.2611 10.0453C54.5866 10.0453 55.6254 10.4527 56.3774 11.2675C57.1294 12.0822 57.5054 13.2223 57.5054 14.6876C57.5054 15.5781 57.3142 16.3771 56.9318 17.0845C56.5558 17.7855 56.0142 18.3319 55.3068 18.7234C54.5994 19.1087 53.7646 19.3014 52.8023 19.3014C51.9611 19.3014 51.1804 19.134 50.4603 18.7992C49.7401 18.4582 49.1698 17.9813 48.7492 17.3687C48.335 16.756 48.1151 16.0581 48.0896 15.2749H50.8235C50.8809 15.8497 51.0816 16.2981 51.4258 16.6202C51.7763 16.936 52.2319 17.0939 52.7927 17.0939C53.4172 17.0939 53.8984 16.8729 54.2361 16.4308C54.5739 15.9823 54.7428 15.3507 54.7428 14.536C54.7428 13.7528 54.5484 13.1528 54.1597 12.7359C53.7709 12.3191 53.2197 12.1107 52.5059 12.1107C51.8495 12.1107 51.3174 12.2812 50.9096 12.6223L50.6419 12.8686L48.4433 12.3286Z" fill="#F13232"/>
<path d="M32.284 3.33008C32.41 3.44108 32.536 3.51045 32.634 3.66308C32.956 4.19034 33.11 5.02284 33.11 6.1606V9.43513C33.096 10.5174 32.942 11.3221 32.648 11.8494C32.354 12.3767 31.864 12.6403 31.192 12.6403C30.506 12.6403 30.016 12.3628 29.708 11.8217C29.4 11.2805 29.246 10.4341 29.246 9.31026V5.95248C29.26 4.89797 29.428 4.12096 29.736 3.62146C29.82 3.4827 29.946 3.4272 30.044 3.33008H27.02C26.656 4.20421 26.46 5.2726 26.46 6.56298V9.10213C26.474 10.9475 26.894 12.3767 27.692 13.3618C28.49 14.3469 29.652 14.8464 31.178 14.8464C32.718 14.8464 33.88 14.3469 34.678 13.334C35.476 12.3212 35.868 10.8643 35.868 8.96338V6.41036C35.854 5.18934 35.658 4.17646 35.294 3.33008H32.284Z" fill="#F13232"/>
<path d="M29.638 20.7713C30.002 20.4799 30.436 20.3412 30.968 20.3412C31.556 20.3412 32.018 20.4938 32.354 20.7991C32.69 21.1043 32.858 21.5483 32.858 22.1033C32.858 22.6722 32.69 23.144 32.354 23.4908C32.018 23.8377 31.5 24.0181 30.8 24.0181H29.33V24.6841H34.118C34.468 24.4482 34.804 24.1707 35.056 23.8239C35.448 23.2966 35.644 22.7138 35.644 22.0756C35.644 20.8546 35.224 19.8833 34.398 19.1896C33.558 18.4958 32.41 18.1489 30.94 18.1489C30.1 18.1489 29.316 18.3154 28.616 18.6346C27.916 18.9537 27.37 19.3977 26.978 19.9804C26.586 20.5493 26.39 21.2015 26.39 21.923H29.148C29.092 21.4373 29.274 21.0627 29.638 20.7713Z" fill="#F13232"/>
<path d="M11.564 3.33008V5.56397C11.55 6.64623 11.396 7.45099 11.102 7.97824C10.794 8.49162 10.318 8.75525 9.63198 8.75525C8.94598 8.75525 8.45598 8.47775 8.14798 7.93662C7.83998 7.39549 7.68598 6.54911 7.68598 5.42522V3.33008H4.92798V5.21709C4.94198 7.06249 5.34798 8.49162 6.15998 9.47676C6.97198 10.4619 8.11998 10.9614 9.63198 10.9614C11.172 10.9614 12.334 10.4619 13.132 9.44901C13.93 8.43612 14.322 6.97924 14.322 5.07834V3.33008H11.564Z" fill="#F13232"/>
<path d="M7.78404 24.6698H10.612L14.42 15.9701V14.4438H4.59204V16.65H11.522L7.78404 24.6698Z" fill="#F13232"/>
</svg>
