<svg width="53" height="65" viewBox="0 0 53 65" fill="none" xmlns="http://www.w3.org/2000/svg">
<path fill-rule="evenodd" clip-rule="evenodd" d="M0 1.625C0 0.727537 0.732374 0 1.6358 0H51.3642C52.2676 0 53 0.727537 53 1.625V63.375C53 64.2725 52.2676 65 51.3642 65H1.6358C0.732374 65 0 64.2725 0 63.375V1.625ZM3.2716 3.25V61.75H49.7284V3.25H3.2716Z" fill="#4A4A4A"/>
<path fill-rule="evenodd" clip-rule="evenodd" d="M10.3383 32.9712C10.3383 32.0737 11.0706 31.3462 11.9741 31.3462H40.9768C41.8803 31.3462 42.6126 32.0737 42.6126 32.9712C42.6126 33.8687 41.8803 34.5962 40.9768 34.5962H11.9741C11.0706 34.5962 10.3383 33.8687 10.3383 32.9712Z" fill="#4A4A4A"/>
<path fill-rule="evenodd" clip-rule="evenodd" d="M10.3383 44.0698C10.3383 43.1724 11.0706 42.4448 11.9741 42.4448H40.9768C41.8803 42.4448 42.6126 43.1724 42.6126 44.0698C42.6126 44.9673 41.8803 45.6948 40.9768 45.6948H11.9741C11.0706 45.6948 10.3383 44.9673 10.3383 44.0698Z" fill="#4A4A4A"/>
<path d="M15.8213 23.5525C19.5886 23.5525 22.6426 20.5187 22.6426 16.7762C22.6426 13.0338 19.5886 10 15.8213 10C12.054 10 9 13.0338 9 16.7762C9 20.5187 12.054 23.5525 15.8213 23.5525Z" fill="#F13232"/>
<path d="M16.4615 19.4073H15.0307V20.427H13.9109V19.4073H13V18.5113H13.9109V18.039H13V17.1429H13.9109V14H16.386C17.0999 14 17.6701 14.1854 18.0967 14.5562C18.5233 14.924 18.7366 15.414 18.7366 16.0261C18.7366 16.65 18.5336 17.1399 18.1278 17.496C17.722 17.8491 17.1576 18.0301 16.4348 18.039H15.0307V18.5113H16.4615V19.4073ZM15.0307 17.1429H16.3682C16.7711 17.1429 17.0791 17.0502 17.2924 16.8648C17.5057 16.6794 17.6124 16.4028 17.6124 16.0349C17.6124 15.7053 17.5072 15.4361 17.2969 15.2271C17.0895 15.0182 16.8022 14.9093 16.4348 14.9005H15.0307V17.1429Z" fill="#4A4A4A"/>
<path d="M33.9811 13.1567C33.9811 12.5073 34.1933 11.9815 34.6177 11.5793C35.0421 11.1723 35.5982 10.9688 36.286 10.9688C36.9835 10.9688 37.5445 11.1699 37.9689 11.5721C38.3933 11.9694 38.6055 12.5097 38.6055 13.193V13.7163C38.6055 14.3705 38.3933 14.8963 37.9689 15.2937C37.5445 15.691 36.9884 15.8897 36.3006 15.8897C35.6079 15.8897 35.0469 15.691 34.6177 15.2937C34.1933 14.8915 33.9811 14.3512 33.9811 13.6727V13.1567ZM35.386 13.7163C35.386 14.0071 35.4689 14.2421 35.6347 14.4214C35.8055 14.5959 36.0274 14.6831 36.3006 14.6831C36.5738 14.6831 36.7908 14.5934 36.9518 14.4142C37.1128 14.2349 37.1933 13.995 37.1933 13.6945V13.1567C37.1933 12.8659 37.1128 12.6309 36.9518 12.4516C36.7908 12.2723 36.5689 12.1826 36.286 12.1826C36.0177 12.1826 35.8006 12.2723 35.6347 12.4516C35.4689 12.626 35.386 12.8707 35.386 13.1857V13.7163ZM39.0738 19.1098C39.0738 18.4556 39.2884 17.9298 39.7177 17.5325C40.147 17.1303 40.7031 16.9292 41.386 16.9292C42.0787 16.9292 42.6372 17.1278 43.0616 17.5252C43.4909 17.9177 43.7055 18.4604 43.7055 19.1534V19.6767C43.7055 20.3261 43.4958 20.8519 43.0762 21.2541C42.6567 21.6514 42.0982 21.8501 41.4006 21.8501C40.6982 21.8501 40.1348 21.649 39.7104 21.2468C39.286 20.8446 39.0738 20.3116 39.0738 19.6477V19.1098ZM40.4787 19.6767C40.4787 19.9433 40.5665 20.171 40.7421 20.36C40.9177 20.549 41.1372 20.6435 41.4006 20.6435C41.9957 20.6435 42.2933 20.3164 42.2933 19.6622V19.1098C42.2933 18.819 42.2104 18.5864 42.0445 18.412C41.8787 18.2327 41.6592 18.143 41.386 18.143C41.1128 18.143 40.8933 18.2327 40.7275 18.412C40.5616 18.5864 40.4787 18.8263 40.4787 19.1316V19.6767ZM36.7177 20.9124L35.686 20.36L40.8884 12.0881L41.9201 12.6406L36.7177 20.9124Z" fill="#4A4A4A"/>
<path d="M28.3605 15.8078H30.049V16.7877H28.3605V18.699H27.3118V16.7877H25.6144V15.8078H27.3118V14.02H28.3605V15.8078Z" fill="#4A4A4A"/>
</svg>
