<svg width="52" height="54" viewBox="0 0 52 54" fill="none" xmlns="http://www.w3.org/2000/svg">
<g clip-path="url(#clip0)">
<path fill-rule="evenodd" clip-rule="evenodd" d="M14.6045 13.6368C15.2185 14.0076 15.413 14.8017 15.039 15.4105C12.038 20.2958 12.6661 26.7631 16.9298 30.9913C21.9413 35.9481 30.0598 35.9464 35.0566 30.9918L35.0578 30.9906C39.2976 26.7983 39.9499 20.3899 37.0196 15.5161C36.6515 14.9038 36.8537 14.1116 37.4711 13.7466C38.0886 13.3816 38.8876 13.5821 39.2557 14.1943C42.7813 20.0583 42.002 27.769 36.8967 32.8177C36.8965 32.8179 36.8963 32.8181 36.8961 32.8183L35.977 31.9045L36.8973 32.8171C36.8971 32.8173 36.8969 32.8175 36.8967 32.8177C30.8818 38.7811 21.1168 38.7793 15.0907 32.8181L15.0896 32.8171C9.95607 27.7269 9.20467 19.946 12.8158 14.0677C13.1897 13.4589 13.9906 13.266 14.6045 13.6368Z" fill="#4A4A4A"/>
<path d="M1.30164 52.7092C1.30164 45.6624 4.46459 39.377 9.4368 35.2212C9.4368 35.2212 15.4243 42.3842 26.0065 42.3842C36.5887 42.3842 42.5762 35.2212 42.5762 35.2212C47.5484 39.377 50.7114 45.6753 50.7114 52.7092H1.30164Z" fill="#4A4A4A"/>
<path fill-rule="evenodd" clip-rule="evenodd" d="M10.4383 34.3969C10.4383 34.3969 10.4383 34.3969 10.4383 34.3969L10.4381 34.3967L10.4378 34.3963L10.4449 34.4046C10.4525 34.4135 10.4659 34.4289 10.4849 34.4504C10.5229 34.4934 10.5835 34.5605 10.6662 34.6484C10.8318 34.8243 11.0857 35.0827 11.4251 35.3964C12.1047 36.0244 13.1224 36.8694 14.4554 37.716C17.1208 39.4088 21.0227 41.0937 26.0065 41.0937C30.9904 41.0937 34.8922 39.4088 37.5577 37.716C38.8906 36.8694 39.9083 36.0244 40.5879 35.3964C40.9273 35.0827 41.1812 34.8243 41.3468 34.6484C41.4295 34.5605 41.4901 34.4934 41.5281 34.4504C41.5471 34.4289 41.5605 34.4135 41.5682 34.4046L41.5741 34.3977L41.5747 34.3969C41.7962 34.1324 42.1149 33.9664 42.4603 33.9358C42.806 33.9051 43.1497 34.0127 43.4151 34.2345C48.6735 38.6295 52.013 45.2856 52.013 52.7094C52.013 53.4221 51.4303 54 50.7114 54H1.30163C0.582758 54 0 53.4221 0 52.7094C0 45.2723 3.33986 38.6292 8.59789 34.2345C8.86327 34.0127 9.20701 33.9051 9.55271 33.9358C9.89758 33.9664 10.2159 34.1319 10.4373 34.3958C10.4376 34.3961 10.4378 34.3964 10.4381 34.3967C10.4382 34.3968 10.4382 34.3969 10.4383 34.3969ZM42.6486 37.0154C42.5596 37.1009 42.4643 37.1908 42.3628 37.2847C41.589 37.9997 40.4484 38.9454 38.9617 39.8896C35.9879 41.7783 31.6049 43.6749 26.0065 43.6749C20.4081 43.6749 16.0252 41.7783 13.0513 39.8896C11.5646 38.9454 10.424 37.9997 9.65025 37.2847C9.54867 37.1908 9.45334 37.1008 9.36429 37.0153C5.49566 40.6441 2.97383 45.725 2.64088 51.4187H49.372C49.0385 45.734 46.5166 40.6448 42.6486 37.0154Z" fill="#4A4A4A"/>
<path d="M3.08484 39.9324L6.417 43.2364L9.61901 40.0615L5.76619 36.2412C4.75092 37.377 3.8528 38.6031 3.08484 39.9324Z" fill="#F13232"/>
<path d="M48.6678 39.9324L45.3357 43.2364L42.1337 40.0615L45.9865 36.2412C47.0018 37.377 47.8999 38.6031 48.6678 39.9324Z" fill="#F13232"/>
<path fill-rule="evenodd" clip-rule="evenodd" d="M24.4503 2.91051C24.4502 2.91057 24.4503 2.91046 24.4503 2.91051L22.2898 4.26551L22.2862 4.26778C20.673 5.27216 18.2052 5.97492 15.8457 6.43076C13.4494 6.8937 10.9732 7.137 9.22856 7.137H8.30441C8.08278 7.137 7.90047 7.29932 7.86681 7.50948L13.0416 13.5601L18.9874 12.7755C23.3841 12.1925 27.8218 12.1924 32.2061 12.7756L38.1542 13.5604L43.365 7.50785C43.3307 7.29848 43.1487 7.137 42.9277 7.137H42.0035C40.2526 7.137 37.7733 6.89375 35.3766 6.43076C33.0175 5.975 30.5515 5.27207 28.9436 4.26634L26.7818 2.91051C26.7817 2.91046 26.7819 2.91057 26.7818 2.91051C26.0744 2.46718 25.1577 2.46718 24.4503 2.91051ZM23.0592 0.728682C24.6164 -0.247451 26.6157 -0.247451 28.1729 0.728682L30.3326 2.08318C30.3327 2.08328 30.3324 2.08308 30.3326 2.08318C31.5103 2.81967 33.5741 3.45274 35.8745 3.89714C38.1377 4.33436 40.4483 4.55574 42.0035 4.55574H42.9277C44.9571 4.55574 46.4019 6.47673 45.8605 8.40027C45.8096 8.58101 45.7196 8.74858 45.5968 8.8913L39.6743 15.7704C39.3877 16.1033 38.9503 16.2695 38.5127 16.2118L31.86 15.334C27.7057 14.7814 23.5005 14.7813 19.3325 15.334L12.6804 16.2118C12.2412 16.2697 11.8025 16.1022 11.5159 15.7672L5.63258 8.88809C5.51111 8.74606 5.42207 8.57964 5.37159 8.40027C4.83021 6.47673 6.27497 4.55574 8.30441 4.55574H9.22856C10.7771 4.55574 13.0844 4.33441 15.3479 3.89714C17.6469 3.45298 19.7144 2.82036 20.9 2.08287C20.9006 2.08249 20.9012 2.08211 20.9019 2.08174L23.0592 0.728682Z" fill="#4A4A4A"/>
<path fill-rule="evenodd" clip-rule="evenodd" d="M38.6844 16.2358C39.4033 16.2358 39.986 16.8137 39.986 17.5265C39.986 18.175 39.6489 18.6617 39.3284 18.9723C39.01 19.2808 38.6102 19.5166 38.2127 19.703C37.4111 20.0788 36.3343 20.3832 35.108 20.6263C32.634 21.117 29.2741 21.4113 25.6031 21.4113C22.1023 21.4113 18.8857 21.1429 16.4514 20.6924C15.2402 20.4683 14.1749 20.1905 13.3509 19.8556C12.9398 19.6886 12.5464 19.4904 12.2149 19.2494C11.8971 19.0184 11.5305 18.6716 11.342 18.1732C11.0896 17.5058 11.4306 16.7619 12.1037 16.5116C12.7354 16.2767 13.4351 16.5601 13.7274 17.1475C13.7348 17.1534 13.7437 17.1602 13.7542 17.1678C13.8556 17.2415 14.0407 17.3463 14.3381 17.4672C14.9313 17.7083 15.8037 17.9467 16.929 18.155C19.1675 18.5692 22.2182 18.83 25.6031 18.83C29.1561 18.83 32.3369 18.5435 34.5975 18.0952C35.7385 17.8689 36.5776 17.6143 37.1 17.3694C37.2584 17.2951 37.3629 17.2331 37.4278 17.1889C37.5774 16.6398 38.0833 16.2358 38.6844 16.2358ZM13.6953 17.1194C13.6954 17.1194 13.697 17.1209 13.6998 17.124C13.6966 17.121 13.6952 17.1194 13.6953 17.1194Z" fill="#4A4A4A"/>
<path d="M26.3189 6.54325L28.5447 7.02078L26.8135 8.47919L27.0478 10.7249L25.1084 9.53751L23.0258 10.4539L23.5594 8.25979L22.0496 6.58197L24.3144 6.41418L25.4598 4.46533L26.3189 6.54325Z" fill="#F13232"/>
</g>
<defs>
<clipPath id="clip0">
<rect width="52" height="54" fill="white"/>
</clipPath>
</defs>
</svg>
