<svg width="68" height="62" viewBox="0 0 68 62" fill="none" xmlns="http://www.w3.org/2000/svg">
<g clip-path="url(#clip0)">
<path fill-rule="evenodd" clip-rule="evenodd" d="M0 3.38672H61.5238V51.1872H0V3.38672ZM3.2381 6.65849V47.9155H58.2857V6.65849H3.2381Z" fill="#4A4A4A"/>
<path d="M13.6971 15.999H8.01428V21.741H13.6971V15.999Z" fill="#F13232"/>
<path d="M23.6543 15.999H17.9714V21.741H23.6543V15.999Z" fill="#F13232"/>
<path d="M33.5952 15.999H27.9124V21.741H33.5952V15.999Z" fill="#F13232"/>
<path d="M43.5524 15.999H37.8695V21.741H43.5524V15.999Z" fill="#F13232"/>
<path d="M53.5095 15.999H47.8267V21.741H53.5095V15.999Z" fill="#F13232"/>
<path d="M13.6971 26.0596H8.01428V31.8015H13.6971V26.0596Z" fill="#F13232"/>
<path d="M23.6543 26.0596H17.9714V31.8015H23.6543V26.0596Z" fill="#F13232"/>
<path d="M33.5952 26.0596H27.9124V31.8015H33.5952V26.0596Z" fill="#F13232"/>
<path d="M43.5524 26.0596H37.8695V31.8015H43.5524V26.0596Z" fill="#F13232"/>
<path d="M53.5095 26.0596H47.8267V31.8015H53.5095V26.0596Z" fill="#F13232"/>
<path d="M13.6971 36.1045H8.01428V41.8464H13.6971V36.1045Z" fill="#F13232"/>
<path d="M23.6543 36.1045H17.9714V41.8464H23.6543V36.1045Z" fill="#F13232"/>
<path d="M33.5952 36.1045H27.9124V41.8464H33.5952V36.1045Z" fill="#F13232"/>
<path d="M43.5524 36.1045H37.8695V41.8464H43.5524V36.1045Z" fill="#F13232"/>
<path d="M53.5095 36.1045H47.8267V41.8464H53.5095V36.1045Z" fill="#F13232"/>
<path fill-rule="evenodd" clip-rule="evenodd" d="M9.24475 8.62111V0H12.4828V8.62111H9.24475Z" fill="#4A4A4A"/>
<path fill-rule="evenodd" clip-rule="evenodd" d="M49.041 8.62111V0H52.2791V8.62111H49.041Z" fill="#4A4A4A"/>
<path d="M55.8571 62.0002C62.5634 62.0002 67.9999 56.5071 67.9999 49.731C67.9999 42.955 62.5634 37.4619 55.8571 37.4619C49.1508 37.4619 43.7142 42.955 43.7142 49.731C43.7142 56.5071 49.1508 62.0002 55.8571 62.0002Z" fill="#F13232"/>
<path fill-rule="evenodd" clip-rule="evenodd" d="M53.4286 42.3691H56.6667V48.9127H59.9048V52.1845H53.4286V42.3691Z" fill="#4A4A4A"/>
</g>
<defs>
<clipPath id="clip0">
<rect width="68" height="62" fill="white"/>
</clipPath>
</defs>
</svg>
