<svg width="68" height="47" viewBox="0 0 68 47" fill="none" xmlns="http://www.w3.org/2000/svg">
<path fill-rule="evenodd" clip-rule="evenodd" d="M0 0H68V47H0V0ZM4 4.08696V42.913H64V4.08696H4Z" fill="#4A4A4A"/>
<path fill-rule="evenodd" clip-rule="evenodd" d="M0 13.2822H68V21.4561H0V13.2822Z" fill="#F13232"/>
<path fill-rule="evenodd" clip-rule="evenodd" d="M14 31.6739C12.8954 31.6739 12 32.5888 12 33.7174C12 34.8459 12.8954 35.7608 14 35.7608C15.1046 35.7608 16 34.8459 16 33.7174C16 32.5888 15.1046 31.6739 14 31.6739ZM8 33.7174C8 30.3316 10.6863 27.5869 14 27.5869C17.3137 27.5869 20 30.3316 20 33.7174C20 37.1031 17.3137 39.8478 14 39.8478C10.6863 39.8478 8 37.1031 8 33.7174Z" fill="#4A4A4A"/>
</svg>
