<svg width="66" height="56" viewBox="0 0 66 56" fill="none" xmlns="http://www.w3.org/2000/svg">
<g clip-path="url(#clip0)">
<path fill-rule="evenodd" clip-rule="evenodd" d="M19.0685 11.209L27.6642 32.4369L36.1242 11.5439L42.3603 23.9828L47.3657 17.8387L53.4829 25.3477H61.4522V28.6225H51.92L47.3657 23.032L41.6994 29.9874L36.4429 19.5023L27.6642 41.1824L19.021 19.8372L16.0348 26.9851H3.44775V23.7102H13.8458L19.0685 11.209Z" fill="#F13232"/>
<path fill-rule="evenodd" clip-rule="evenodd" d="M31.9283 9.41197L31.923 9.40748L31.8911 9.3806C31.861 9.35547 31.8136 9.31622 31.7497 9.26438C31.6218 9.16066 31.4281 9.00678 31.1751 8.815C30.6686 8.43104 29.9275 7.89747 29.0041 7.31147C27.1469 6.13285 24.6031 4.77465 21.7817 3.97216C18.9613 3.16999 15.9596 2.94909 13.1001 3.91315C10.2721 4.86658 7.38173 7.04643 4.87317 11.4238C2.54991 15.4778 2.91577 19.9366 5.04929 24.5884C7.1973 29.2718 11.0628 33.9563 15.3654 38.1647C19.6507 42.3561 24.2783 45.9878 27.8456 48.5771C29.6265 49.8698 31.137 50.8983 32.1999 51.6021C32.5048 51.8039 32.7727 51.979 32.9995 52.1258C33.2263 51.9787 33.4943 51.8034 33.7994 51.6012C34.8623 50.8965 36.3728 49.8669 38.1538 48.5728C41.7211 45.9806 46.3488 42.3454 50.6342 38.1508C54.9369 33.9393 58.8026 29.2522 60.9507 24.5678C63.0844 19.9148 63.4498 15.4574 61.1272 11.4079C58.6189 7.03491 55.7288 4.85799 52.9009 3.90657C50.0413 2.94451 47.0394 3.16678 44.2189 3.96997C41.3972 4.77346 38.8533 6.13223 36.9961 7.31113C36.0726 7.89728 35.3315 8.43092 34.825 8.81493C34.572 9.00673 34.3782 9.16063 34.2503 9.26435C34.1864 9.3162 34.139 9.35546 34.1089 9.38059L34.077 9.40747L34.0717 9.41197L33 10.3329L31.9283 9.41197ZM33 6.08575C32.444 5.66999 31.6863 5.13202 30.7669 4.54854C28.753 3.27051 25.9128 1.74173 22.6822 0.822868C19.4505 -0.0963067 15.7321 -0.431112 12.0486 0.810756C8.33353 2.06324 4.85784 4.85094 2.02237 9.79873C-0.998398 15.0699 -0.342242 20.7058 2.06327 25.9507C4.45431 31.164 8.64482 36.1782 13.0663 40.5028C17.5051 44.8444 22.2696 48.5802 25.9134 51.225C27.7379 52.5493 29.2877 53.6047 30.3837 54.3304C30.9319 54.6933 31.3669 54.9741 31.6664 55.165C31.8162 55.2605 31.9321 55.3336 32.0115 55.3833L32.1026 55.4402L32.127 55.4553L32.1357 55.4607C32.1363 55.4611 32.1368 55.4614 33 54.0686L32.1357 55.4607L33.0006 55.9939L33.8641 55.4609L33 54.0686C33.8641 55.4609 33.8634 55.4613 33.8641 55.4609L33.8739 55.4548L33.8982 55.4397L33.9894 55.3827C34.0687 55.3329 34.1846 55.2598 34.3344 55.1642C34.6339 54.973 35.0689 54.6919 35.6171 54.3285C36.713 53.6019 38.2628 52.5454 40.0873 51.2196C43.731 48.572 48.4954 44.8327 52.9341 40.4881C57.3555 36.1604 61.5458 31.1437 63.9368 25.9299C66.3421 20.6846 66.9987 15.0493 63.9773 9.78182C61.1416 4.8379 57.6656 2.05342 53.9505 0.803516C50.267 -0.43574 46.5488 -0.099238 43.3173 0.820962C40.0869 1.74086 37.2468 3.27011 35.233 4.54837C34.3136 5.13195 33.556 5.66997 33 6.08575Z" fill="#4A4A4A"/>
</g>
<defs>
<clipPath id="clip0">
<rect width="66" height="56" fill="white"/>
</clipPath>
</defs>
</svg>
