<svg width="68" height="69" viewBox="0 0 68 69" fill="none" xmlns="http://www.w3.org/2000/svg">
<g clip-path="url(#clip0)">
<path fill-rule="evenodd" clip-rule="evenodd" d="M34 3.36585C22.7333 3.36585 13.6 12.4075 13.6 23.561C13.6 34.7144 22.7333 43.7561 34 43.7561C45.2666 43.7561 54.4 34.7144 54.4 23.561C54.4 12.4075 45.2666 3.36585 34 3.36585ZM10.2 23.561C10.2 10.5486 20.8556 0 34 0C47.1443 0 57.8 10.5486 57.8 23.561C57.8 36.5733 47.1443 47.122 34 47.122C20.8556 47.122 10.2 36.5733 10.2 23.561Z" fill="#4A4A4A"/>
<path fill-rule="evenodd" clip-rule="evenodd" d="M23.7321 19.0673C23.7321 17.5151 25.0031 16.2568 26.5711 16.2568C28.139 16.2568 29.4101 17.5151 29.4101 19.0673C29.4101 20.6195 28.139 21.8778 26.5711 21.8778C25.0031 21.8778 23.7321 20.6195 23.7321 19.0673Z" fill="#F13232"/>
<path fill-rule="evenodd" clip-rule="evenodd" d="M25.3341 10.6592C26.1338 12.0075 27.5978 12.9081 29.2741 12.9081V16.274C26.3264 16.274 23.7784 14.6839 22.4021 12.3634L25.3341 10.6592Z" fill="#4A4A4A"/>
<path fill-rule="evenodd" clip-rule="evenodd" d="M38.59 19.0673C38.59 17.5151 39.861 16.2568 41.429 16.2568C42.9969 16.2568 44.268 17.5151 44.268 19.0673C44.268 20.6195 42.9969 21.8778 41.429 21.8778C39.861 21.8778 38.59 20.6195 38.59 19.0673Z" fill="#F13232"/>
<path fill-rule="evenodd" clip-rule="evenodd" d="M45.5981 12.3634C44.2217 14.6839 41.6738 16.274 38.7261 16.274V12.9081C40.4024 12.9081 41.8664 12.0075 42.6661 10.6592L45.5981 12.3634Z" fill="#4A4A4A"/>
<path fill-rule="evenodd" clip-rule="evenodd" d="M34.0341 30.8649C29.8386 30.8649 26.1865 33.1141 24.2161 36.4728L21.276 34.7824C23.8276 30.4332 28.5735 27.499 34.0341 27.499C39.4347 27.499 44.1637 30.3742 46.7192 34.673L43.7889 36.3801C41.8224 33.0722 38.1874 30.8649 34.0341 30.8649Z" fill="#4A4A4A"/>
<path d="M1.69995 67.3168C1.69995 58.128 5.84795 49.8985 12.342 44.4795C12.342 44.4795 20.162 53.8197 34 53.8197C47.838 53.8197 55.658 44.4795 55.658 44.4795C62.152 49.8985 66.3 58.128 66.3 67.3168H1.69995Z" fill="#F13232"/>
<path fill-rule="evenodd" clip-rule="evenodd" d="M12.2475 46.8194C7.19262 51.555 3.88589 58.2063 3.44932 65.6345H64.5507C64.1141 58.2063 60.8074 51.555 55.7525 46.8194C55.6361 46.931 55.5115 47.0483 55.3788 47.1708C54.3679 48.1032 52.8776 49.3364 50.9348 50.5676C47.0484 53.0304 41.3199 55.5032 34 55.5032C26.6801 55.5032 20.9516 53.0304 17.0652 50.5676C15.1224 49.3364 13.6321 48.1032 12.6212 47.1708C12.4885 47.0483 12.3639 46.931 12.2475 46.8194ZM54.3506 43.4044L55.443 42.0996L56.7537 43.1933C63.6209 48.9237 68 57.6197 68 67.3174V69.0003H0V67.3174C0 57.6197 4.37915 48.9237 11.2463 43.1933L12.557 42.0996L13.6486 43.4034C13.6483 43.4031 13.6479 43.4027 13.6486 43.4034L13.6586 43.4151C13.6686 43.4267 13.686 43.4468 13.7109 43.4748C13.7605 43.5308 13.8396 43.6184 13.9477 43.733C14.1639 43.9622 14.4956 44.2992 14.939 44.7082C15.8268 45.5271 17.1564 46.6289 18.8983 47.7328C22.3814 49.9401 27.4819 52.1374 34 52.1374C40.5181 52.1374 45.6186 49.9401 49.1017 47.7328C50.8437 46.6289 52.1732 45.5271 53.061 44.7082C53.5044 44.2992 53.8361 43.9622 54.0523 43.733C54.1604 43.6184 54.2395 43.5308 54.2891 43.4748C54.314 43.4468 54.3314 43.4267 54.3414 43.4151L54.3491 43.4061L54.3506 43.4044Z" fill="#F13232"/>
</g>
<defs>
<clipPath id="clip0">
<rect width="68" height="69" fill="white"/>
</clipPath>
</defs>
</svg>
